<?xml version="1.0" encoding="utf-8"?>
<!-- Svg Vector Icons : http://www.onlinewebfonts.com/icon -->
<!DOCTYPE svg PUBLIC "-//W3C//DTD SVG 1.1//EN" "http://www.w3.org/Graphics/SVG/1.1/DTD/svg11.dtd">
<svg version="1.1" xmlns="http://www.w3.org/2000/svg" xmlns:xlink="http://www.w3.org/1999/xlink" x="0px" y="0px" viewBox="0 0 1000 1000" enable-background="new 0 0 1000 1000" xml:space="preserve">
<metadata> Svg Vector Icons : http://www.onlinewebfonts.com/icon </metadata>
<g><path d="M799.4,967.1c-4.5,0-8.9-1.1-13-3.3L500,806.1L213.6,963.8c-9.2,5-20.3,4.3-28.8-1.8c-8.5-6.1-12.8-16.6-11-26.9l52.2-315.8L18,409.5c-7.2-7.3-9.8-18-6.7-27.8c3.1-9.8,11.4-17,21.5-18.7l313-52.6L475.7,48c4.6-9.3,14-15.2,24.3-15.2c10.3,0,19.8,5.9,24.3,15.2l129.9,262.3l313,52.6c10.1,1.7,18.4,8.9,21.5,18.7c3.1,9.9,0.5,20.6-6.7,27.8L774.1,619.3l52.2,315.8c1.7,10.4-2.6,20.8-11.1,26.9C810.6,965.4,805,967.1,799.4,967.1z M500,747.3c4.5,0,9,1.1,13,3.4l250.4,137.8l-45.2-274c-1.5-8.8,1.4-17.7,7.6-24l180.4-182.1l-274.5-46.2c-8.6-1.4-16-7-19.9-14.8L500,121.7L388.2,347.4c-3.9,7.9-11.3,13.4-19.9,14.8L93.8,408.4l180.4,182.1c6.2,6.3,9,15.2,7.6,24l-45.2,274L487,750.7C491.1,748.4,495.5,747.3,500,747.3z"/></g>
</svg>