<?xml version="1.0" encoding="utf-8"?>
<!-- Svg Vector Icons : http://www.onlinewebfonts.com/icon -->
<!DOCTYPE svg PUBLIC "-//W3C//DTD SVG 1.1//EN" "http://www.w3.org/Graphics/SVG/1.1/DTD/svg11.dtd">
<svg version="1.1" xmlns="http://www.w3.org/2000/svg" xmlns:xlink="http://www.w3.org/1999/xlink" x="0px" y="0px" viewBox="0 0 1000 1000" enable-background="new 0 0 1000 1000" xml:space="preserve">
<metadata> Svg Vector Icons : http://www.onlinewebfonts.com/icon </metadata>
<g><path d="M654,500H542V388c0-15.5-12.5-28-28-28h-28c-15.5,0-28,12.5-28,28v112H346c-15.5,0-28,12.5-28,28v28c0,15.4,12.5,28,28,28h112v112c0,15.4,12.5,28,28,28h28c15.5,0,28-12.6,28-28V584h112c15.5,0,28-12.6,28-28v-28C682,512.5,669.5,500,654,500z M878,164H485.9l-41.9-63.9C438.6,88.9,424.5,80,412.2,80H32.2C19.9,80,10,88.9,10,100.1v144.5c0,17.2,0,31.4,0,31.4v532c0,61.9,50.1,112,112,112h756c61.9,0,112-50.2,112-112V276C990,214.1,939.8,164,878,164z M878,780c0,15.4-12.5,28-28,28H150c-15.5,0-28-12.6-28-28V304c0-15.5,12.5-28,28-28h700c15.5,0,28,12.5,28,28L878,780L878,780z"/></g>
</svg>