<?xml version="1.0" encoding="utf-8"?>
<!-- Svg Vector Icons : http://www.onlinewebfonts.com/icon -->
<!DOCTYPE svg PUBLIC "-//W3C//DTD SVG 1.1//EN" "http://www.w3.org/Graphics/SVG/1.1/DTD/svg11.dtd">
<svg version="1.1" xmlns="http://www.w3.org/2000/svg" xmlns:xlink="http://www.w3.org/1999/xlink" x="0px" y="0px" viewBox="0 0 1000 1000" enable-background="new 0 0 1000 1000" xml:space="preserve">
<metadata> Svg Vector Icons : http://www.onlinewebfonts.com/icon </metadata>
<g><path d="M887.5,34.9l19.4,85.9l83.1,36.1L599.5,425.6l-116.3,72.2 M694.4,429.8c7.3,22.1,11.5,45.6,11.5,70.2c0,123-99.7,222.7-222.7,222.7c-123,0-222.7-99.7-222.7-222.7c0-123,99.7-222.7,222.7-222.7c36.1,0,70.1,8.8,100.3,24l-69.2,92.2c-9.9-2.9-20.2-4.9-31.1-4.9c-61.5,0-111.3,49.8-111.3,111.3c0,61.5,49.9,111.3,111.3,111.3c61.5,0,111.3-49.8,111.3-111.3c0-4.1-0.8-8.1-1.2-12.1C625,470.9,659.2,451.1,694.4,429.8z M483.2,166c-184.5,0-334,149.5-334,334c0,184.5,149.6,334,334,334c184.5,0,334-149.5,334-334c0-46.3-9.4-90.3-26.4-130.4c42.5-27.3,82.8-53.8,117.3-76.9c30.7,62.7,48.3,132.9,48.3,207.3c0,261.3-211.9,473.2-473.2,473.2C221.9,973.2,10,761.3,10,500C10,238.7,221.9,26.8,483.2,26.8c92.5,0,178.6,27,251.5,72.9l-83.8,111.8C601.6,182.7,544.4,166,483.2,166z"/></g>
</svg>