<svg id="svg" version="1.1" width="35" height="35" viewBox="0 0 400 400" xmlns="http://www.w3.org/2000/svg" xmlns:xlink="http://www.w3.org/1999/xlink" ><g id="svgg"><path id="path0" d="M196.200 15.080 C 195.760 15.183,195.209 15.511,194.975 15.808 C 194.653 16.217,192.782 16.378,187.242 16.474 C 180.833 16.584,179.871 16.686,179.423 17.300 C 178.990 17.893,178.241 18.000,174.518 18.000 C 170.632 18.000,170.040 18.092,169.400 18.800 C 168.781 19.484,168.168 19.600,165.171 19.600 C 161.326 19.600,160.400 19.802,160.400 20.643 C 160.400 21.073,159.669 21.200,157.200 21.200 C 154.267 21.200,154.000 21.267,154.000 22.000 C 154.000 22.728,153.733 22.800,151.027 22.800 C 148.465 22.800,148.021 22.904,147.815 23.554 C 147.620 24.167,147.084 24.340,144.947 24.476 C 143.014 24.599,142.219 24.822,141.940 25.322 C 141.661 25.820,141.024 26.000,139.543 26.000 C 137.862 26.000,137.490 26.133,137.316 26.800 C 137.147 27.447,136.770 27.600,135.353 27.600 C 133.867 27.600,133.600 27.722,133.600 28.400 C 133.600 29.103,133.333 29.200,131.400 29.200 C 129.711 29.200,129.200 29.339,129.200 29.800 C 129.200 30.222,128.774 30.400,127.763 30.400 C 126.662 30.400,126.276 30.587,126.116 31.200 C 125.957 31.806,125.570 32.000,124.516 32.000 C 123.462 32.000,123.075 32.194,122.916 32.800 C 122.752 33.427,122.370 33.600,121.153 33.600 C 119.867 33.600,119.600 33.737,119.600 34.400 C 119.600 35.052,119.333 35.200,118.163 35.200 C 117.062 35.200,116.676 35.387,116.516 36.000 C 116.360 36.597,115.970 36.800,114.980 36.800 C 114.021 36.800,113.586 37.014,113.409 37.572 C 113.274 37.998,112.649 38.457,112.015 38.597 C 111.384 38.735,110.767 39.108,110.646 39.424 C 110.524 39.741,110.059 40.000,109.613 40.000 C 109.067 40.000,108.800 40.263,108.800 40.800 C 108.800 41.333,108.533 41.600,108.000 41.600 C 107.467 41.600,107.200 41.867,107.200 42.400 C 107.200 43.052,106.933 43.200,105.763 43.200 C 104.662 43.200,104.276 43.387,104.116 44.000 C 104.000 44.443,103.570 44.800,103.153 44.800 C 102.739 44.800,102.400 45.070,102.400 45.400 C 102.400 45.730,102.113 46.000,101.763 46.000 C 101.412 46.000,101.031 46.360,100.916 46.800 C 100.801 47.240,100.441 47.600,100.116 47.600 C 99.791 47.600,99.431 47.960,99.316 48.400 C 99.201 48.840,98.841 49.200,98.516 49.200 C 98.191 49.200,97.831 49.560,97.716 50.000 C 97.601 50.440,97.241 50.800,96.916 50.800 C 96.591 50.800,96.231 51.160,96.116 51.600 C 96.001 52.040,95.658 52.400,95.353 52.400 C 95.049 52.400,94.800 52.760,94.800 53.200 C 94.800 53.733,94.533 54.000,94.000 54.000 C 93.483 54.000,93.200 54.267,93.200 54.753 C 93.200 55.170,92.843 55.600,92.400 55.716 C 91.787 55.876,91.600 56.262,91.600 57.363 C 91.600 58.533,91.452 58.800,90.800 58.800 C 90.267 58.800,90.000 59.067,90.000 59.600 C 90.000 60.133,89.733 60.400,89.200 60.400 C 88.558 60.400,88.400 60.667,88.400 61.753 C 88.400 62.770,88.201 63.159,87.600 63.316 C 86.994 63.475,86.800 63.862,86.800 64.916 C 86.800 65.970,86.606 66.357,86.000 66.516 C 85.394 66.675,85.200 67.062,85.200 68.116 C 85.200 69.170,85.006 69.557,84.400 69.716 C 83.808 69.871,83.600 70.262,83.600 71.218 C 83.600 71.943,83.318 72.718,82.959 72.980 C 82.591 73.249,82.224 74.290,82.097 75.424 C 81.975 76.511,81.615 77.591,81.297 77.824 C 80.979 78.058,80.624 79.093,80.507 80.124 C 80.308 81.889,80.226 82.000,79.111 82.000 C 78.262 82.000,77.866 82.227,77.716 82.800 C 77.601 83.240,77.196 83.600,76.815 83.600 C 76.435 83.600,75.813 83.944,75.433 84.364 C 75.052 84.784,74.304 85.238,73.771 85.372 C 73.237 85.506,72.800 85.882,72.800 86.208 C 72.800 86.533,72.524 86.800,72.187 86.800 C 71.851 86.800,71.457 87.115,71.314 87.500 C 71.170 87.885,70.726 88.435,70.326 88.723 C 69.927 89.010,69.600 89.594,69.600 90.019 C 69.600 90.445,69.240 91.018,68.800 91.293 C 68.360 91.568,68.000 92.088,68.000 92.450 C 68.000 92.811,67.640 93.201,67.200 93.316 C 66.747 93.434,66.400 93.862,66.400 94.301 C 66.400 94.727,66.040 95.402,65.600 95.800 C 65.160 96.198,64.800 96.791,64.800 97.118 C 64.800 97.445,64.512 97.923,64.159 98.180 C 63.800 98.443,63.426 99.473,63.307 100.524 C 63.170 101.743,62.904 102.400,62.548 102.400 C 62.145 102.400,62.000 103.035,62.000 104.800 C 62.000 106.933,61.911 107.200,61.200 107.200 C 60.464 107.200,60.400 107.467,60.400 110.538 C 60.400 113.368,60.278 113.986,59.600 114.600 C 58.352 115.729,58.352 141.713,59.600 142.493 C 60.324 142.945,60.400 143.426,60.400 147.534 C 60.400 151.738,60.459 152.090,61.200 152.284 C 62.408 152.600,62.408 157.200,61.200 157.200 C 60.667 157.200,60.400 157.467,60.400 158.000 C 60.400 158.533,60.133 158.800,59.600 158.800 C 59.067 158.800,58.800 159.067,58.800 159.600 C 58.800 160.133,58.533 160.400,58.000 160.400 C 57.467 160.400,57.200 160.667,57.200 161.200 C 57.200 161.733,56.933 162.000,56.400 162.000 C 55.960 162.000,55.600 162.249,55.600 162.553 C 55.600 162.858,55.240 163.201,54.800 163.316 C 54.360 163.431,54.000 163.800,54.000 164.136 C 54.000 164.471,53.640 164.860,53.200 165.000 C 52.605 165.189,52.400 165.605,52.400 166.627 C 52.400 167.733,52.245 168.000,51.600 168.000 C 51.082 168.000,50.800 168.267,50.800 168.757 C 50.800 169.174,50.540 169.614,50.222 169.736 C 49.904 169.858,49.524 170.597,49.378 171.379 C 49.231 172.161,48.882 172.800,48.602 172.800 C 48.036 172.800,47.614 174.027,47.605 175.697 C 47.602 176.356,47.281 176.993,46.800 177.293 C 46.164 177.690,46.000 178.226,46.000 179.909 C 46.000 181.421,45.829 182.091,45.400 182.255 C 44.534 182.588,44.489 208.400,45.355 208.400 C 45.761 208.400,45.953 209.163,46.070 211.244 C 46.188 213.333,46.413 214.220,46.916 214.588 C 47.317 214.881,47.600 215.623,47.600 216.382 C 47.600 217.338,47.808 217.729,48.400 217.884 C 49.006 218.043,49.200 218.430,49.200 219.484 C 49.200 220.538,49.394 220.925,50.000 221.084 C 50.597 221.240,50.800 221.630,50.800 222.620 C 50.800 223.595,51.012 224.013,51.600 224.200 C 52.040 224.340,52.400 224.684,52.400 224.965 C 52.400 225.246,52.760 225.802,53.200 226.200 C 53.640 226.598,54.000 227.273,54.000 227.699 C 54.000 228.138,54.347 228.566,54.800 228.684 C 55.243 228.800,55.600 229.230,55.600 229.647 C 55.600 230.133,55.883 230.400,56.400 230.400 C 56.933 230.400,57.200 230.667,57.200 231.200 C 57.200 231.733,57.467 232.000,58.000 232.000 C 58.533 232.000,58.800 232.267,58.800 232.800 C 58.800 233.333,59.067 233.600,59.600 233.600 C 60.133 233.600,60.400 233.867,60.400 234.400 C 60.400 234.933,60.667 235.200,61.200 235.200 C 61.640 235.200,62.000 235.460,62.000 235.778 C 62.000 236.336,63.020 237.050,65.274 238.070 C 65.864 238.337,66.432 238.881,66.536 239.278 C 66.642 239.684,67.092 240.000,67.563 240.000 C 68.029 240.000,68.400 240.258,68.400 240.582 C 68.400 240.930,68.962 241.269,69.800 241.426 C 70.602 241.577,71.200 241.926,71.200 242.245 C 71.200 242.623,71.695 242.800,72.753 242.800 C 73.970 242.800,74.352 242.973,74.516 243.600 C 74.694 244.280,75.062 244.400,76.963 244.400 C 78.933 244.400,79.200 244.495,79.200 245.200 C 79.200 245.902,79.467 246.000,81.386 246.000 C 83.162 246.000,83.652 246.150,84.000 246.800 C 84.365 247.482,84.838 247.600,87.214 247.600 L 90.000 247.600 90.000 249.167 C 90.000 251.122,90.323 252.000,91.043 252.000 C 91.458 252.000,91.600 252.621,91.600 254.437 C 91.600 256.538,91.710 256.904,92.400 257.084 C 93.085 257.263,93.200 257.630,93.200 259.643 C 93.200 261.560,93.347 262.085,94.000 262.493 C 94.591 262.862,94.800 263.426,94.800 264.653 C 94.800 265.761,95.000 266.391,95.400 266.545 C 95.810 266.702,96.000 267.343,96.000 268.565 C 96.000 269.848,96.209 270.503,96.737 270.877 C 97.179 271.191,97.569 272.115,97.710 273.186 C 97.841 274.168,98.229 275.178,98.573 275.430 C 98.918 275.682,99.200 276.259,99.200 276.711 C 99.200 277.956,99.621 278.800,100.243 278.800 C 100.626 278.800,100.800 279.299,100.800 280.400 C 100.800 281.733,100.933 282.000,101.600 282.000 C 102.267 282.000,102.400 282.267,102.400 283.600 C 102.400 284.933,102.533 285.200,103.200 285.200 C 103.733 285.200,104.000 285.467,104.000 286.000 C 104.000 286.652,103.733 286.800,102.563 286.800 C 101.462 286.800,101.076 286.987,100.916 287.600 C 100.760 288.197,100.370 288.400,99.380 288.400 C 98.405 288.400,97.987 288.612,97.800 289.200 C 97.620 289.768,97.195 290.000,96.336 290.000 C 95.462 290.000,95.067 290.222,94.916 290.800 C 94.801 291.240,94.396 291.600,94.015 291.600 C 93.635 291.600,92.998 291.960,92.600 292.400 C 92.202 292.840,91.454 293.200,90.938 293.200 C 90.267 293.200,90.000 293.427,90.000 294.000 C 90.000 294.667,89.733 294.800,88.400 294.800 C 87.301 294.800,86.800 294.974,86.800 295.355 C 86.800 295.675,86.197 296.024,85.379 296.178 C 84.597 296.324,83.858 296.704,83.736 297.022 C 83.614 297.340,83.292 297.600,83.019 297.600 C 82.747 297.600,82.198 297.960,81.800 298.400 C 81.402 298.840,80.654 299.200,80.138 299.200 C 79.467 299.200,79.200 299.427,79.200 300.000 C 79.200 300.667,78.933 300.800,77.600 300.800 C 76.267 300.800,76.000 300.933,76.000 301.600 C 76.000 302.222,75.733 302.400,74.803 302.400 C 74.040 302.400,73.426 302.690,73.107 303.200 C 72.832 303.640,72.334 304.000,72.000 304.000 C 71.666 304.000,71.168 304.360,70.893 304.800 C 70.574 305.310,69.960 305.600,69.197 305.600 C 68.267 305.600,68.000 305.778,68.000 306.400 C 68.000 307.045,67.733 307.200,66.627 307.200 C 65.605 307.200,65.189 307.405,65.000 308.000 C 64.820 308.568,64.395 308.800,63.536 308.800 C 62.662 308.800,62.267 309.022,62.116 309.600 C 62.000 310.043,61.570 310.400,61.153 310.400 C 60.667 310.400,60.400 310.683,60.400 311.200 C 60.400 311.867,60.133 312.000,58.800 312.000 C 57.701 312.000,57.200 312.174,57.200 312.555 C 57.200 312.875,56.597 313.224,55.779 313.378 C 54.997 313.524,54.258 313.904,54.136 314.222 C 54.014 314.540,53.704 314.800,53.446 314.800 C 53.189 314.800,52.670 315.160,52.293 315.600 C 51.916 316.040,51.139 316.400,50.566 316.400 C 49.862 316.400,49.458 316.658,49.316 317.200 C 49.168 317.764,48.770 318.000,47.967 318.000 C 47.238 318.000,46.674 318.287,46.400 318.800 C 46.165 319.240,45.736 319.600,45.448 319.600 C 45.160 319.600,44.598 319.960,44.200 320.400 C 43.802 320.840,43.054 321.200,42.538 321.200 C 41.867 321.200,41.600 321.427,41.600 322.000 C 41.600 322.652,41.333 322.800,40.163 322.800 C 39.062 322.800,38.676 322.987,38.516 323.600 C 38.400 324.043,37.970 324.400,37.553 324.400 C 37.067 324.400,36.800 324.683,36.800 325.200 C 36.800 325.867,36.533 326.000,35.200 326.000 C 33.867 326.000,33.600 326.133,33.600 326.800 C 33.600 327.428,33.333 327.600,32.363 327.600 C 31.462 327.600,31.068 327.817,30.916 328.400 C 30.800 328.843,30.370 329.200,29.953 329.200 C 29.539 329.200,29.200 329.450,29.200 329.755 C 29.200 330.075,28.597 330.424,27.779 330.578 C 26.997 330.724,26.265 331.086,26.151 331.383 C 26.038 331.679,25.597 332.012,25.172 332.123 C 24.748 332.234,24.400 332.612,24.400 332.963 C 24.400 333.333,24.065 333.600,23.600 333.600 C 23.067 333.600,22.800 333.867,22.800 334.400 C 22.800 334.933,22.533 335.200,22.000 335.200 C 21.467 335.200,21.200 335.467,21.200 336.000 C 21.200 336.533,20.933 336.800,20.400 336.800 C 19.691 336.800,19.600 337.067,19.600 339.153 C 19.600 341.170,19.486 341.537,18.800 341.716 C 18.076 341.905,18.000 342.262,18.000 345.466 C 18.000 348.574,18.098 349.069,18.800 349.507 C 19.382 349.871,19.600 350.440,19.600 351.600 C 19.600 352.760,19.818 353.329,20.400 353.693 C 20.942 354.031,21.200 354.626,21.200 355.534 C 21.200 356.538,21.401 356.927,22.000 357.084 C 22.665 357.258,22.800 357.630,22.800 359.284 C 22.800 360.938,22.935 361.310,23.600 361.484 C 24.227 361.648,24.400 362.030,24.400 363.247 C 24.400 364.533,24.537 364.800,25.200 364.800 C 25.902 364.800,26.000 365.067,26.000 366.973 C 26.000 368.795,26.129 369.187,26.800 369.400 C 27.401 369.591,27.600 370.005,27.600 371.064 C 27.600 372.138,27.791 372.525,28.400 372.684 C 29.063 372.858,29.200 373.230,29.200 374.859 C 29.200 376.238,29.379 376.894,29.800 377.055 C 30.175 377.199,30.400 377.810,30.400 378.680 C 30.400 379.738,30.593 380.125,31.200 380.284 C 31.827 380.448,32.000 380.830,32.000 382.047 C 32.000 383.067,32.275 383.875,32.800 384.400 C 33.597 385.197,34.133 385.200,196.800 385.200 L 360.000 385.200 360.000 382.800 C 360.000 380.667,360.089 380.400,360.800 380.400 C 361.543 380.400,361.600 380.133,361.600 376.627 C 361.600 373.205,361.674 372.830,362.400 372.600 C 363.124 372.370,363.200 371.995,363.200 368.662 C 363.200 365.473,363.307 364.886,364.000 364.293 C 364.705 363.689,364.800 363.113,364.800 359.451 C 364.800 355.630,364.865 355.276,365.600 355.084 C 366.336 354.892,366.400 354.538,366.400 350.637 C 366.400 346.933,366.501 346.299,367.200 345.600 C 367.915 344.885,368.000 344.267,368.000 339.800 C 368.000 335.810,368.112 334.800,368.553 334.800 C 369.960 334.800,370.202 315.445,368.800 315.000 C 368.360 314.860,368.000 314.400,368.000 313.976 C 368.000 313.553,367.640 312.982,367.200 312.707 C 366.760 312.432,366.400 311.874,366.400 311.466 C 366.400 311.059,366.046 310.633,365.613 310.519 C 365.181 310.406,364.718 309.973,364.586 309.557 C 364.446 309.115,363.978 308.800,363.461 308.800 C 362.975 308.800,362.317 308.440,362.000 308.000 C 361.683 307.560,361.103 307.200,360.712 307.200 C 360.267 307.200,360.000 306.900,360.000 306.400 C 360.000 305.867,359.733 305.600,359.200 305.600 C 358.667 305.600,358.400 305.333,358.400 304.800 C 358.400 304.158,358.133 304.000,357.047 304.000 C 356.030 304.000,355.641 303.801,355.484 303.200 C 355.369 302.760,355.009 302.400,354.684 302.400 C 354.359 302.400,353.999 302.040,353.884 301.600 C 353.725 300.994,353.338 300.800,352.284 300.800 C 351.230 300.800,350.843 300.606,350.684 300.000 C 350.569 299.560,350.188 299.200,349.837 299.200 C 349.487 299.200,349.200 298.949,349.200 298.643 C 349.200 297.998,348.348 297.600,346.967 297.600 C 346.267 297.600,346.000 297.379,346.000 296.800 C 346.000 296.282,345.733 296.000,345.243 296.000 C 344.826 296.000,344.382 295.730,344.255 295.400 C 344.124 295.057,343.527 294.800,342.859 294.800 C 342.030 294.800,341.633 294.569,341.484 294.000 C 341.324 293.387,340.938 293.200,339.837 293.200 C 338.667 293.200,338.400 293.052,338.400 292.400 C 338.400 291.876,338.133 291.600,337.627 291.600 C 337.202 291.600,336.740 291.240,336.600 290.800 C 336.411 290.205,335.995 290.000,334.973 290.000 C 333.867 290.000,333.600 289.845,333.600 289.200 C 333.600 288.533,333.333 288.400,332.000 288.400 C 330.667 288.400,330.400 288.267,330.400 287.600 C 330.400 287.067,330.133 286.800,329.600 286.800 C 329.160 286.800,328.800 286.616,328.800 286.391 C 328.800 286.167,328.391 285.797,327.892 285.569 C 326.676 285.015,326.803 282.000,328.042 282.000 C 328.502 282.000,328.800 281.720,328.800 281.289 C 328.800 280.898,329.160 280.270,329.600 279.893 C 330.040 279.516,330.400 278.756,330.400 278.204 C 330.400 277.467,330.613 277.200,331.200 277.200 C 331.842 277.200,332.000 276.933,332.000 275.847 C 332.000 274.830,332.199 274.441,332.800 274.284 C 333.406 274.125,333.600 273.738,333.600 272.684 C 333.600 271.630,333.794 271.243,334.400 271.084 C 335.006 270.925,335.200 270.538,335.200 269.484 C 335.200 268.430,335.394 268.043,336.000 267.884 C 336.606 267.725,336.800 267.338,336.800 266.284 C 336.800 265.230,336.994 264.843,337.600 264.684 C 338.213 264.524,338.400 264.138,338.400 263.037 C 338.400 262.075,338.584 261.600,338.957 261.600 C 339.575 261.600,340.000 260.757,340.000 259.530 C 340.000 259.088,340.360 258.269,340.800 257.709 C 341.240 257.150,341.600 256.106,341.600 255.389 C 341.600 254.599,341.837 253.995,342.200 253.855 C 342.633 253.689,342.800 253.010,342.800 251.413 C 342.800 249.467,342.896 249.200,343.600 249.200 C 344.267 249.200,344.400 248.933,344.400 247.600 C 344.400 246.533,344.667 245.733,345.200 245.200 C 345.763 244.637,346.000 243.867,346.000 242.603 C 346.000 241.240,346.193 240.686,346.800 240.307 C 347.446 239.903,347.600 239.374,347.600 237.550 C 347.600 235.630,347.719 235.262,348.400 235.084 C 349.098 234.902,349.200 234.538,349.200 232.241 C 349.200 230.040,349.332 229.525,350.000 229.107 C 350.680 228.683,350.800 228.174,350.800 225.731 C 350.800 223.205,350.898 222.823,351.600 222.600 C 352.310 222.375,352.400 221.995,352.400 219.235 C 352.400 216.632,352.531 216.006,353.200 215.400 C 353.893 214.773,354.000 214.168,354.000 210.870 C 354.000 207.805,354.136 206.912,354.700 206.291 C 355.278 205.653,355.423 204.574,355.532 200.080 C 355.642 195.564,355.778 194.558,356.332 194.153 C 357.388 193.381,357.356 134.596,356.300 133.824 C 355.701 133.385,355.600 132.621,355.600 128.510 C 355.600 124.314,355.499 123.580,354.800 122.691 C 354.141 121.853,354.000 121.068,354.000 118.237 C 354.000 115.333,353.876 114.676,353.200 114.000 C 352.550 113.350,352.400 112.667,352.400 110.363 C 352.400 107.915,352.296 107.498,351.643 107.327 C 351.012 107.162,350.860 106.663,350.728 104.328 C 350.608 102.213,350.402 101.433,349.885 101.144 C 349.372 100.856,349.200 100.225,349.200 98.627 C 349.200 96.830,349.074 96.460,348.400 96.284 C 347.730 96.109,347.600 95.738,347.600 94.000 C 347.600 92.262,347.470 91.891,346.800 91.716 C 346.173 91.552,346.000 91.170,346.000 89.953 C 346.000 88.667,345.863 88.400,345.200 88.400 C 344.498 88.400,344.400 88.133,344.400 86.227 C 344.400 84.405,344.271 84.013,343.600 83.800 C 343.003 83.610,342.800 83.195,342.800 82.160 C 342.800 81.298,342.574 80.688,342.200 80.545 C 341.852 80.411,341.600 79.813,341.600 79.120 C 341.600 78.262,341.375 77.866,340.800 77.716 C 340.292 77.583,340.000 77.170,340.000 76.586 C 340.000 75.279,339.599 74.400,339.002 74.400 C 338.720 74.400,338.369 73.761,338.222 72.979 C 338.076 72.197,337.696 71.458,337.378 71.336 C 337.060 71.214,336.800 70.817,336.800 70.453 C 336.800 70.090,336.440 69.568,336.000 69.293 C 335.535 69.003,335.200 68.360,335.200 67.759 C 335.200 67.062,334.940 66.657,334.400 66.516 C 333.957 66.400,333.600 65.970,333.600 65.553 C 333.600 65.139,333.240 64.440,332.800 64.000 C 332.360 63.560,332.000 62.930,332.000 62.600 C 332.000 62.267,331.644 62.000,331.200 62.000 C 330.667 62.000,330.400 61.733,330.400 61.200 C 330.400 60.667,330.133 60.400,329.600 60.400 C 328.955 60.400,328.800 60.133,328.800 59.027 C 328.800 58.005,328.595 57.589,328.000 57.400 C 327.560 57.260,327.200 56.798,327.200 56.373 C 327.200 55.867,326.924 55.600,326.400 55.600 C 325.867 55.600,325.600 55.333,325.600 54.800 C 325.600 54.356,325.333 54.000,325.000 54.000 C 324.670 54.000,324.400 53.713,324.400 53.363 C 324.400 53.012,324.040 52.631,323.600 52.516 C 323.160 52.401,322.800 52.041,322.800 51.716 C 322.800 51.391,322.440 51.031,322.000 50.916 C 321.560 50.801,321.200 50.441,321.200 50.116 C 321.200 49.791,320.840 49.431,320.400 49.316 C 319.960 49.201,319.600 48.841,319.600 48.516 C 319.600 48.191,319.240 47.831,318.800 47.716 C 318.360 47.601,318.000 47.241,318.000 46.916 C 318.000 46.591,317.640 46.231,317.200 46.116 C 316.760 46.001,316.400 45.658,316.400 45.353 C 316.400 45.049,316.040 44.800,315.600 44.800 C 315.067 44.800,314.800 44.533,314.800 44.000 C 314.800 43.467,314.533 43.200,314.000 43.200 C 313.467 43.200,313.200 42.933,313.200 42.400 C 313.200 41.883,312.933 41.600,312.447 41.600 C 312.030 41.600,311.600 41.243,311.484 40.800 C 311.324 40.187,310.938 40.000,309.837 40.000 C 308.667 40.000,308.400 39.852,308.400 39.200 C 308.400 38.760,308.151 38.400,307.847 38.400 C 307.542 38.400,307.199 38.040,307.084 37.600 C 306.969 37.160,306.588 36.800,306.237 36.800 C 305.887 36.800,305.240 36.440,304.800 36.000 C 304.360 35.560,303.661 35.200,303.247 35.200 C 302.830 35.200,302.400 34.843,302.284 34.400 C 302.149 33.884,301.738 33.600,301.126 33.600 C 300.604 33.600,299.917 33.240,299.600 32.800 C 299.283 32.360,298.722 32.000,298.354 32.000 C 297.987 32.000,297.586 31.740,297.464 31.422 C 297.342 31.104,296.603 30.724,295.821 30.578 C 295.003 30.424,294.400 30.075,294.400 29.755 C 294.400 29.389,293.932 29.200,293.027 29.200 C 292.005 29.200,291.589 28.995,291.400 28.400 C 291.209 27.799,290.795 27.600,289.736 27.600 C 288.662 27.600,288.275 27.409,288.116 26.800 C 287.959 26.199,287.570 26.000,286.553 26.000 C 285.733 26.000,284.885 25.685,284.400 25.200 C 283.875 24.675,283.067 24.400,282.047 24.400 C 280.830 24.400,280.448 24.227,280.284 23.600 C 280.106 22.920,279.738 22.800,277.837 22.800 C 275.867 22.800,275.600 22.705,275.600 22.000 C 275.600 21.289,275.333 21.200,273.200 21.200 C 271.415 21.200,270.800 21.057,270.800 20.643 C 270.800 19.859,269.897 19.600,267.167 19.600 C 265.411 19.600,264.800 19.456,264.800 19.043 C 264.800 18.208,263.876 18.000,260.167 18.000 C 257.567 18.000,256.800 17.874,256.800 17.447 C 256.800 16.627,255.495 16.412,250.500 16.405 C 246.951 16.401,246.000 16.284,246.000 15.850 C 246.000 15.547,245.438 15.187,244.750 15.050 C 243.325 14.765,197.424 14.794,196.200 15.080 M240.351 34.300 C 240.687 34.900,241.495 35.019,246.023 35.133 C 250.562 35.247,251.420 35.373,252.127 36.033 C 252.775 36.637,253.543 36.800,255.731 36.800 C 257.894 36.800,258.623 36.952,259.012 37.484 C 259.380 37.987,260.267 38.212,262.356 38.330 C 264.305 38.440,265.200 38.650,265.200 38.998 C 265.200 39.585,266.441 39.987,268.280 39.995 C 269.044 39.998,269.708 40.263,269.926 40.654 C 270.162 41.076,271.017 41.377,272.346 41.504 C 273.725 41.637,274.400 41.882,274.400 42.251 C 274.400 42.622,274.903 42.800,275.953 42.800 C 277.170 42.800,277.552 42.973,277.716 43.600 C 277.879 44.225,278.262 44.400,279.466 44.400 C 280.574 44.400,281.148 44.625,281.507 45.200 C 281.782 45.640,282.427 46.000,282.941 46.000 C 283.455 46.000,284.202 46.360,284.600 46.800 C 284.998 47.240,285.613 47.600,285.966 47.600 C 286.319 47.600,286.832 47.960,287.107 48.400 C 287.419 48.899,288.040 49.200,288.757 49.200 C 289.570 49.200,289.968 49.434,290.116 50.000 C 290.257 50.540,290.662 50.800,291.359 50.800 C 291.960 50.800,292.603 51.135,292.893 51.600 C 293.168 52.040,293.709 52.400,294.096 52.400 C 294.533 52.400,294.800 52.703,294.800 53.200 C 294.800 53.644,295.067 54.000,295.400 54.000 C 295.730 54.000,296.360 54.360,296.800 54.800 C 297.240 55.240,297.939 55.600,298.353 55.600 C 298.770 55.600,299.200 55.957,299.316 56.400 C 299.431 56.840,299.812 57.200,300.163 57.200 C 300.513 57.200,300.800 57.470,300.800 57.800 C 300.800 58.133,301.156 58.400,301.600 58.400 C 302.133 58.400,302.400 58.667,302.400 59.200 C 302.400 59.733,302.667 60.000,303.200 60.000 C 303.733 60.000,304.000 60.267,304.000 60.800 C 304.000 61.333,304.267 61.600,304.800 61.600 C 305.333 61.600,305.600 61.867,305.600 62.400 C 305.600 62.933,305.867 63.200,306.400 63.200 C 306.933 63.200,307.200 63.467,307.200 64.000 C 307.200 64.533,307.467 64.800,308.000 64.800 C 308.533 64.800,308.800 65.067,308.800 65.600 C 308.800 66.133,309.067 66.400,309.600 66.400 C 310.133 66.400,310.400 66.667,310.400 67.200 C 310.400 67.733,310.667 68.000,311.200 68.000 C 311.733 68.000,312.000 68.267,312.000 68.800 C 312.000 69.240,312.250 69.600,312.555 69.600 C 312.874 69.600,313.223 70.198,313.374 71.000 C 313.531 71.838,313.870 72.400,314.218 72.400 C 314.538 72.400,314.800 72.668,314.800 72.997 C 314.800 73.325,315.160 73.818,315.600 74.093 C 316.040 74.368,316.400 74.776,316.400 75.000 C 316.400 75.224,316.760 75.632,317.200 75.907 C 317.710 76.226,318.000 76.840,318.000 77.603 C 318.000 78.533,318.178 78.800,318.800 78.800 C 319.387 78.800,319.600 79.067,319.600 79.800 C 319.600 80.350,319.960 81.160,320.400 81.600 C 320.840 82.040,321.200 82.670,321.200 83.000 C 321.200 83.333,321.556 83.600,322.000 83.600 C 322.667 83.600,322.800 83.867,322.800 85.200 C 322.800 86.533,322.933 86.800,323.600 86.800 C 324.143 86.800,324.400 87.067,324.400 87.629 L 324.400 88.458 323.346 87.629 C 322.455 86.928,321.729 86.800,318.642 86.800 C 315.426 86.800,314.933 86.705,314.493 86.000 C 313.727 84.773,300.251 84.773,298.691 86.000 C 297.949 86.583,297.068 86.800,295.437 86.800 L 293.200 86.800 293.200 89.753 C 293.200 92.370,293.291 92.731,294.000 92.916 C 294.729 93.107,294.800 93.462,294.800 96.920 C 294.800 99.861,294.930 100.764,295.378 100.936 C 295.758 101.082,295.998 101.886,296.078 103.279 L 296.200 105.400 300.400 105.388 C 303.535 105.378,304.914 105.207,305.837 104.710 C 306.992 104.089,307.118 104.089,307.749 104.720 C 308.287 105.259,309.372 105.422,313.112 105.530 C 316.773 105.635,317.907 105.802,318.286 106.290 C 318.565 106.648,319.631 106.997,320.786 107.108 C 322.133 107.238,322.800 107.484,322.800 107.851 C 322.800 108.225,323.310 108.400,324.400 108.400 C 325.733 108.400,326.000 108.533,326.000 109.200 C 326.000 109.733,326.267 110.000,326.800 110.000 C 327.333 110.000,327.600 110.267,327.600 110.800 C 327.600 111.333,327.867 111.600,328.400 111.600 C 328.933 111.600,329.200 111.867,329.200 112.400 C 329.200 112.844,329.467 113.200,329.800 113.200 C 330.130 113.200,330.400 113.487,330.400 113.837 C 330.400 114.188,330.760 114.569,331.200 114.684 C 331.718 114.819,332.000 115.230,332.000 115.847 C 332.000 116.371,332.360 117.160,332.800 117.600 C 333.240 118.040,333.600 118.916,333.600 119.546 C 333.600 120.176,333.960 121.150,334.400 121.709 C 334.904 122.350,335.200 123.332,335.200 124.363 C 335.200 125.733,335.070 126.000,334.400 126.000 C 333.733 126.000,333.600 125.733,333.600 124.400 C 333.600 123.067,333.467 122.800,332.800 122.800 C 332.148 122.800,332.000 122.533,332.000 121.363 C 332.000 120.262,331.813 119.876,331.200 119.716 C 330.626 119.566,330.400 119.170,330.400 118.316 C 330.400 117.462,330.174 117.066,329.600 116.916 C 329.082 116.781,328.800 116.370,328.800 115.753 C 328.800 114.420,324.861 114.279,324.516 115.600 C 324.357 116.206,323.970 116.400,322.916 116.400 C 321.862 116.400,321.475 116.594,321.316 117.200 C 321.168 117.766,320.770 118.000,319.957 118.000 C 319.240 118.000,318.619 118.301,318.307 118.800 C 318.032 119.240,317.491 119.600,317.104 119.600 C 316.717 119.600,316.040 119.960,315.600 120.400 C 315.160 120.840,314.513 121.200,314.163 121.200 C 313.812 121.200,313.431 121.560,313.316 122.000 C 313.201 122.440,312.858 122.800,312.553 122.800 C 312.149 122.800,312.000 123.394,312.000 125.000 C 312.000 126.689,312.139 127.200,312.600 127.200 C 312.930 127.200,313.200 127.532,313.200 127.938 C 313.200 128.344,313.560 129.002,314.000 129.400 C 314.440 129.798,314.800 130.473,314.800 130.899 C 314.800 131.338,315.147 131.766,315.600 131.884 C 316.108 132.017,316.400 132.430,316.400 133.014 C 316.400 134.351,316.805 135.200,317.443 135.200 C 317.794 135.200,318.000 135.639,318.000 136.386 C 318.000 137.162,318.276 137.720,318.800 138.000 C 319.240 138.235,319.600 138.782,319.600 139.214 C 319.600 139.646,319.960 140.360,320.400 140.800 C 320.840 141.240,321.200 141.870,321.200 142.200 C 321.200 142.533,321.556 142.800,322.000 142.800 C 322.667 142.800,322.800 143.067,322.800 144.400 C 322.800 146.155,321.124 146.754,320.000 145.400 C 319.620 144.942,318.580 144.800,315.598 144.800 C 312.004 144.800,311.676 144.735,311.480 143.984 C 311.282 143.229,311.004 143.177,307.733 143.284 L 304.200 143.400 304.079 145.977 C 303.984 147.989,303.787 148.674,303.179 149.100 C 302.573 149.524,302.400 150.118,302.400 151.776 C 302.400 153.570,302.274 153.940,301.600 154.116 C 300.874 154.306,300.800 154.662,300.800 157.963 L 300.800 161.600 303.153 161.600 C 305.170 161.600,305.537 161.714,305.716 162.400 C 305.909 163.139,306.262 163.200,310.316 163.200 C 314.370 163.200,314.723 163.261,314.916 164.000 C 315.242 165.246,333.129 165.246,333.907 164.000 C 334.298 163.374,334.840 163.200,336.403 163.200 L 338.400 163.200 338.400 175.753 C 338.400 187.970,338.379 188.312,337.600 188.516 C 336.845 188.713,336.800 189.062,336.800 194.666 C 336.800 200.174,336.742 200.644,336.000 201.107 C 335.280 201.557,335.200 202.040,335.200 205.957 C 335.200 209.970,335.138 210.323,334.400 210.516 C 333.674 210.706,333.600 211.062,333.600 214.363 C 333.600 217.205,333.478 218.000,333.043 218.000 C 332.250 218.000,332.000 218.907,332.000 221.786 C 332.000 223.970,331.893 224.335,331.200 224.516 C 330.523 224.693,330.400 225.062,330.400 226.920 C 330.400 228.502,330.232 229.179,329.800 229.345 C 329.345 229.519,329.200 230.256,329.200 232.387 C 329.200 234.933,329.124 235.200,328.400 235.200 C 327.694 235.200,327.591 235.492,327.523 237.700 L 327.446 240.200 327.304 237.700 C 327.181 235.536,327.057 235.200,326.381 235.200 C 325.867 235.200,325.600 234.927,325.600 234.400 C 325.600 233.960,325.373 233.600,325.096 233.600 C 324.819 233.600,324.368 233.240,324.093 232.800 C 323.818 232.360,323.325 232.000,322.997 232.000 C 322.668 232.000,322.400 231.730,322.400 231.400 C 322.400 231.070,322.136 230.800,321.814 230.800 C 321.492 230.800,321.035 230.440,320.800 230.000 C 320.565 229.560,320.020 229.200,319.589 229.200 C 319.159 229.200,318.582 228.840,318.307 228.400 C 318.032 227.960,317.491 227.600,317.104 227.600 C 316.667 227.600,316.400 227.297,316.400 226.800 C 316.400 226.097,316.133 226.000,314.200 226.000 C 312.267 226.000,312.000 226.097,312.000 226.800 C 312.000 227.333,311.733 227.600,311.200 227.600 C 310.667 227.600,310.400 227.867,310.400 228.400 C 310.400 229.024,310.133 229.200,309.187 229.200 C 308.513 229.200,307.879 229.450,307.759 229.764 C 307.639 230.074,307.105 230.437,306.571 230.572 C 306.037 230.706,305.600 231.082,305.600 231.408 C 305.600 231.733,305.240 232.000,304.800 232.000 C 304.360 232.000,303.640 232.360,303.200 232.800 C 302.760 233.240,302.040 233.600,301.600 233.600 C 301.160 233.600,300.440 233.960,300.000 234.400 C 299.511 234.889,298.667 235.200,297.827 235.200 C 296.805 235.200,296.389 235.405,296.200 236.000 C 295.987 236.671,295.595 236.800,293.773 236.800 C 291.867 236.800,291.600 236.898,291.600 237.600 C 291.600 238.322,291.333 238.400,288.880 238.400 C 285.722 238.400,285.200 238.757,285.200 240.917 C 285.200 242.133,285.374 242.520,285.991 242.682 C 286.736 242.877,286.788 243.300,286.891 249.944 L 287.000 257.000 291.487 257.113 C 295.550 257.215,296.051 257.149,296.787 256.413 C 297.359 255.841,298.124 255.600,299.367 255.600 C 301.514 255.600,302.400 255.296,302.400 254.557 C 302.400 254.154,302.963 254.000,304.437 254.000 C 306.138 254.000,306.509 253.868,306.684 253.200 C 306.848 252.573,307.230 252.400,308.447 252.400 C 309.733 252.400,310.000 252.263,310.000 251.600 C 310.000 250.948,310.267 250.800,311.437 250.800 C 312.538 250.800,312.924 250.613,313.084 250.000 C 313.232 249.434,313.630 249.200,314.443 249.200 C 315.160 249.200,315.781 248.899,316.093 248.400 C 316.368 247.960,316.909 247.600,317.296 247.600 C 317.733 247.600,318.000 247.297,318.000 246.800 C 318.000 246.214,318.267 246.000,318.997 246.000 C 319.560 246.000,320.210 245.652,320.493 245.200 C 320.768 244.760,321.297 244.400,321.669 244.400 C 322.042 244.400,322.460 244.040,322.600 243.600 C 322.740 243.160,323.072 242.800,323.338 242.800 C 323.855 242.800,325.222 241.394,325.672 240.401 C 325.830 240.052,325.956 240.430,325.972 241.300 C 325.991 242.295,325.731 243.069,325.200 243.600 C 324.671 244.129,324.400 244.933,324.400 245.973 C 324.400 247.195,324.221 247.603,323.600 247.800 C 323.007 247.988,322.800 248.405,322.800 249.413 C 322.800 250.362,322.559 250.901,322.000 251.200 C 321.365 251.540,321.200 252.038,321.200 253.614 C 321.200 255.333,321.093 255.600,320.400 255.600 C 319.733 255.600,319.600 255.867,319.600 257.200 C 319.600 258.533,319.467 258.800,318.800 258.800 C 318.137 258.800,318.000 259.067,318.000 260.353 C 318.000 261.570,317.827 261.952,317.200 262.116 C 316.626 262.266,316.400 262.662,316.400 263.516 C 316.400 264.370,316.174 264.766,315.600 264.916 C 315.147 265.034,314.800 265.462,314.800 265.901 C 314.800 266.327,314.440 267.002,314.000 267.400 C 313.560 267.798,313.200 268.437,313.200 268.819 C 313.200 269.202,312.930 269.618,312.600 269.745 C 312.223 269.889,312.000 270.501,312.000 271.387 C 312.000 272.533,311.849 272.800,311.200 272.800 C 310.683 272.800,310.400 273.067,310.400 273.553 C 310.400 273.970,310.043 274.400,309.600 274.516 C 308.991 274.675,308.800 275.062,308.800 276.137 C 308.800 277.438,308.697 277.559,307.500 277.675 C 306.423 277.779,306.134 278.023,305.817 279.100 C 305.570 279.941,305.181 280.400,304.717 280.400 C 304.267 280.400,304.000 280.697,304.000 281.200 C 304.000 281.665,303.733 282.000,303.363 282.000 C 303.012 282.000,302.631 282.360,302.516 282.800 C 302.401 283.240,302.041 283.600,301.716 283.600 C 301.391 283.600,301.031 283.960,300.916 284.400 C 300.801 284.840,300.441 285.200,300.116 285.200 C 299.791 285.200,299.431 285.560,299.316 286.000 C 299.201 286.440,298.841 286.800,298.516 286.800 C 298.191 286.800,297.831 287.160,297.716 287.600 C 297.601 288.040,297.180 288.400,296.780 288.400 C 296.381 288.400,295.940 288.760,295.800 289.200 C 295.622 289.760,295.195 290.000,294.373 290.000 C 293.467 290.000,293.200 290.182,293.200 290.800 C 293.200 291.333,292.933 291.600,292.400 291.600 C 291.867 291.600,291.600 291.867,291.600 292.400 C 291.600 293.067,291.333 293.200,290.000 293.200 C 288.667 293.200,288.400 293.333,288.400 294.000 C 288.400 294.643,288.133 294.800,287.043 294.800 C 286.261 294.800,285.596 295.033,285.475 295.349 C 285.359 295.652,284.619 296.020,283.832 296.168 C 282.969 296.330,282.400 296.667,282.400 297.018 C 282.400 297.430,281.933 297.600,280.800 297.600 C 279.467 297.600,279.200 297.733,279.200 298.400 C 279.200 299.100,278.933 299.200,277.062 299.200 C 275.432 299.200,274.752 299.390,274.200 300.000 C 273.592 300.672,272.968 300.800,270.301 300.800 C 267.462 300.800,267.103 300.885,266.916 301.600 C 266.590 302.845,243.692 302.845,242.109 301.600 C 241.229 300.908,240.486 300.800,236.593 300.800 C 232.430 300.800,232.078 300.740,231.884 300.000 C 231.698 299.289,231.338 299.200,228.637 299.200 C 226.318 299.200,225.600 299.069,225.600 298.647 C 225.600 297.943,224.361 297.612,221.700 297.605 C 220.174 297.601,219.600 297.448,219.600 297.043 C 219.600 296.304,218.714 296.000,216.567 296.000 C 215.263 296.000,214.800 295.843,214.800 295.400 C 214.800 294.933,214.267 294.800,212.400 294.800 C 210.267 294.800,210.000 294.711,210.000 294.000 C 210.000 293.337,209.733 293.200,208.447 293.200 C 207.230 293.200,206.848 293.027,206.684 292.400 C 206.509 291.732,206.138 291.600,204.437 291.600 C 202.667 291.600,202.400 291.495,202.400 290.800 C 202.400 290.133,202.133 290.000,200.800 290.000 C 199.467 290.000,199.200 289.867,199.200 289.200 C 199.200 288.533,198.933 288.400,197.600 288.400 C 196.267 288.400,196.000 288.267,196.000 287.600 C 196.000 286.933,195.733 286.800,194.400 286.800 C 193.067 286.800,192.800 286.667,192.800 286.000 C 192.800 285.358,192.533 285.200,191.447 285.200 C 190.430 285.200,190.041 285.001,189.884 284.400 C 189.759 283.921,189.338 283.600,188.837 283.600 C 188.371 283.600,188.000 283.342,188.000 283.018 C 188.000 282.670,187.438 282.331,186.600 282.174 C 185.781 282.020,185.200 281.675,185.200 281.343 C 185.200 281.031,184.885 280.659,184.500 280.518 C 184.115 280.376,183.656 280.022,183.480 279.730 C 183.304 279.439,182.539 279.200,181.780 279.200 C 180.667 279.200,180.400 279.045,180.400 278.400 C 180.400 277.867,180.133 277.600,179.600 277.600 C 179.067 277.600,178.800 277.333,178.800 276.800 C 178.800 276.267,178.533 276.000,178.000 276.000 C 177.467 276.000,177.200 275.733,177.200 275.200 C 177.200 274.667,176.933 274.400,176.400 274.400 C 175.867 274.400,175.600 274.133,175.600 273.600 C 175.600 273.160,175.351 272.800,175.047 272.800 C 174.742 272.800,174.399 272.440,174.284 272.000 C 174.169 271.560,173.809 271.200,173.484 271.200 C 173.159 271.200,172.799 270.840,172.684 270.400 C 172.569 269.960,172.208 269.600,171.882 269.600 C 171.521 269.600,171.186 269.052,171.026 268.200 C 170.869 267.362,170.530 266.800,170.182 266.800 C 169.858 266.800,169.600 266.429,169.600 265.963 C 169.600 265.462,169.279 265.041,168.800 264.916 C 168.199 264.759,168.000 264.370,168.000 263.353 C 168.000 262.267,167.842 262.000,167.200 262.000 C 166.533 262.000,166.400 261.733,166.400 260.400 C 166.400 259.067,166.267 258.800,165.600 258.800 C 164.939 258.800,164.800 258.533,164.800 257.262 C 164.800 256.232,164.536 255.485,164.000 255.000 C 163.433 254.487,163.200 253.768,163.200 252.534 C 163.200 251.287,162.973 250.598,162.400 250.107 C 161.828 249.617,161.600 248.927,161.600 247.684 L 161.600 245.945 155.167 246.072 C 149.594 246.183,148.666 246.294,148.223 246.900 C 147.841 247.424,147.143 247.600,145.456 247.600 L 143.200 247.600 143.200 251.437 C 143.200 254.938,143.270 255.293,144.000 255.484 C 144.672 255.660,144.800 256.030,144.800 257.798 C 144.800 259.180,145.006 260.073,145.400 260.400 C 145.770 260.707,146.000 261.585,146.000 262.686 C 146.000 264.138,146.150 264.514,146.800 264.684 C 147.406 264.843,147.600 265.230,147.600 266.284 C 147.600 267.338,147.794 267.725,148.400 267.884 C 149.006 268.043,149.200 268.430,149.200 269.484 C 149.200 270.538,149.394 270.925,150.000 271.084 C 150.606 271.243,150.800 271.630,150.800 272.684 C 150.800 273.738,150.994 274.125,151.600 274.284 C 152.174 274.434,152.400 274.830,152.400 275.684 C 152.400 276.538,152.626 276.934,153.200 277.084 C 153.643 277.200,154.000 277.630,154.000 278.047 C 154.000 278.533,154.283 278.800,154.800 278.800 C 155.452 278.800,155.600 279.067,155.600 280.237 C 155.600 281.338,155.787 281.724,156.400 281.884 C 156.843 282.000,157.200 282.430,157.200 282.847 C 157.200 283.333,157.483 283.600,158.000 283.600 C 158.533 283.600,158.800 283.867,158.800 284.400 C 158.800 284.933,159.067 285.200,159.600 285.200 C 160.133 285.200,160.400 285.467,160.400 286.000 C 160.400 286.533,160.667 286.800,161.200 286.800 C 161.733 286.800,162.000 287.067,162.000 287.600 C 162.000 288.040,162.249 288.400,162.553 288.400 C 162.858 288.400,163.201 288.760,163.316 289.200 C 163.431 289.640,163.791 290.000,164.116 290.000 C 164.441 290.000,164.801 290.360,164.916 290.800 C 165.031 291.240,165.393 291.600,165.720 291.600 C 166.047 291.600,166.418 291.870,166.545 292.200 C 166.671 292.530,167.030 292.800,167.341 292.800 C 167.652 292.800,168.001 293.160,168.116 293.600 C 168.257 294.140,168.662 294.400,169.359 294.400 C 169.960 294.400,170.603 294.735,170.893 295.200 C 171.168 295.640,171.709 296.000,172.096 296.000 C 172.533 296.000,172.800 296.303,172.800 296.800 C 172.800 297.300,173.067 297.600,173.511 297.600 C 173.902 297.600,174.530 297.960,174.907 298.400 C 175.284 298.840,176.044 299.200,176.596 299.200 C 177.333 299.200,177.600 299.413,177.600 300.000 C 177.600 300.629,177.877 300.807,178.900 300.832 C 179.615 300.849,179.975 300.954,179.700 301.065 C 179.425 301.176,179.200 301.522,179.200 301.833 C 179.200 302.145,178.840 302.400,178.400 302.400 C 177.867 302.400,177.600 302.667,177.600 303.200 C 177.600 303.852,177.333 304.000,176.163 304.000 C 175.062 304.000,174.676 304.187,174.516 304.800 C 174.401 305.240,174.052 305.600,173.741 305.600 C 173.430 305.600,173.057 305.915,172.914 306.300 C 172.770 306.685,172.326 307.235,171.926 307.523 C 171.507 307.824,171.200 308.544,171.200 309.223 L 171.200 310.400 168.047 310.400 C 165.230 310.400,164.871 310.315,164.684 309.600 C 164.494 308.875,164.138 308.800,160.864 308.800 C 157.605 308.800,157.229 308.722,157.000 308.000 C 156.789 307.335,156.395 307.200,154.669 307.200 C 153.026 307.200,152.488 307.033,152.093 306.400 C 151.702 305.774,151.160 305.600,149.597 305.600 C 147.867 305.600,147.600 305.493,147.600 304.800 C 147.600 304.133,147.333 304.000,146.000 304.000 C 144.667 304.000,144.400 303.867,144.400 303.200 C 144.400 302.558,144.133 302.400,143.047 302.400 C 142.030 302.400,141.641 302.201,141.484 301.600 C 141.369 301.160,140.971 300.800,140.601 300.800 C 140.230 300.800,139.469 300.440,138.909 300.000 C 138.350 299.560,137.646 299.200,137.346 299.200 C 137.046 299.200,136.800 298.924,136.800 298.587 C 136.800 298.251,136.499 297.859,136.131 297.718 C 135.520 297.484,135.074 297.132,133.166 295.381 C 132.818 295.062,132.302 294.800,132.020 294.800 C 131.380 294.800,128.800 292.024,128.800 291.336 C 128.800 291.057,128.440 290.635,128.000 290.400 C 127.560 290.165,127.200 289.618,127.200 289.186 C 127.200 288.667,126.929 288.400,126.400 288.400 C 125.867 288.400,125.600 288.133,125.600 287.600 C 125.600 287.156,125.333 286.800,125.000 286.800 C 124.578 286.800,124.400 286.374,124.400 285.363 C 124.400 284.262,124.213 283.876,123.600 283.716 C 123.087 283.582,122.800 283.170,122.800 282.569 C 122.800 282.053,122.461 281.309,122.047 280.916 C 121.632 280.522,121.168 279.615,121.015 278.900 C 120.859 278.174,120.486 277.600,120.168 277.600 C 119.783 277.600,119.600 277.138,119.600 276.163 C 119.600 275.062,119.413 274.676,118.800 274.516 C 118.173 274.352,118.000 273.970,118.000 272.753 C 118.000 271.467,117.863 271.200,117.200 271.200 C 116.497 271.200,116.400 270.933,116.400 269.000 C 116.400 267.067,116.303 266.800,115.600 266.800 C 114.919 266.800,114.800 266.533,114.800 265.000 C 114.800 263.733,114.563 262.963,114.000 262.400 C 113.437 261.837,113.200 261.067,113.200 259.803 C 113.200 258.440,113.007 257.886,112.400 257.507 C 111.762 257.109,111.600 256.574,111.600 254.866 C 111.600 253.062,111.474 252.692,110.800 252.516 C 110.091 252.331,110.000 251.970,110.000 249.353 C 110.000 246.667,109.928 246.400,109.200 246.400 C 108.613 246.400,108.400 246.133,108.400 245.400 C 108.400 244.667,108.613 244.400,109.200 244.400 C 109.733 244.400,110.000 244.133,110.000 243.600 C 110.000 243.067,110.267 242.800,110.800 242.800 C 111.240 242.800,111.600 242.542,111.600 242.227 C 111.600 241.912,111.960 241.540,112.400 241.400 C 112.840 241.260,113.200 240.819,113.200 240.420 C 113.200 240.020,113.560 239.599,114.000 239.484 C 114.583 239.332,114.800 238.938,114.800 238.037 C 114.800 237.067,114.972 236.800,115.600 236.800 C 116.117 236.800,116.400 236.533,116.400 236.047 C 116.400 235.630,116.757 235.200,117.200 235.084 C 117.813 234.924,118.000 234.538,118.000 233.437 C 118.000 232.267,118.148 232.000,118.800 232.000 C 119.400 232.000,119.600 231.733,119.600 230.931 C 119.600 230.344,119.854 229.579,120.164 229.231 C 121.520 227.713,121.114 226.000,119.400 226.000 C 118.267 226.000,118.000 225.848,118.000 225.200 C 118.000 224.533,117.733 224.400,116.400 224.400 C 115.067 224.400,114.800 224.267,114.800 223.600 C 114.800 222.933,114.533 222.800,113.200 222.800 C 111.867 222.800,111.600 222.667,111.600 222.000 C 111.600 221.333,111.333 221.200,110.000 221.200 C 108.655 221.200,108.400 221.070,108.400 220.382 C 108.400 219.623,108.192 219.573,105.500 219.682 L 102.600 219.800 102.476 221.300 C 102.379 222.475,102.184 222.800,101.576 222.800 C 101.081 222.800,100.800 223.075,100.800 223.557 C 100.800 223.974,100.540 224.414,100.222 224.536 C 99.904 224.658,99.524 225.397,99.378 226.179 C 99.184 227.211,98.904 227.600,98.355 227.600 C 97.867 227.600,97.600 227.882,97.600 228.400 C 97.600 229.147,97.333 229.200,93.600 229.200 C 89.867 229.200,89.600 229.147,89.600 228.400 C 89.600 227.698,89.333 227.600,87.414 227.600 C 85.638 227.600,85.148 227.450,84.800 226.800 C 84.507 226.253,83.962 226.000,83.075 226.000 C 82.273 226.000,81.516 225.695,81.093 225.200 C 80.716 224.760,80.046 224.400,79.604 224.400 C 79.067 224.400,78.800 224.135,78.800 223.600 C 78.800 222.992,78.533 222.800,77.688 222.800 C 77.035 222.800,76.339 222.470,76.000 222.000 C 75.683 221.560,75.193 221.200,74.912 221.200 C 74.630 221.200,74.400 220.913,74.400 220.563 C 74.400 220.212,74.040 219.831,73.600 219.716 C 73.160 219.601,72.800 219.241,72.800 218.916 C 72.800 218.591,72.440 218.231,72.000 218.116 C 71.560 218.001,71.200 217.641,71.200 217.316 C 71.200 216.991,70.840 216.631,70.400 216.516 C 69.957 216.400,69.600 215.970,69.600 215.553 C 69.600 215.139,69.240 214.440,68.800 214.000 C 68.360 213.560,68.000 212.930,68.000 212.600 C 68.000 212.267,67.644 212.000,67.200 212.000 C 66.533 212.000,66.400 211.733,66.400 210.400 C 66.400 209.067,66.267 208.800,65.600 208.800 C 64.889 208.800,64.800 208.533,64.800 206.400 C 64.800 204.533,64.622 203.822,64.000 203.200 C 63.255 202.455,63.200 201.867,63.200 194.647 C 63.200 187.230,63.235 186.884,64.000 186.684 C 64.680 186.506,64.800 186.138,64.800 184.237 C 64.800 182.267,64.895 182.000,65.600 182.000 C 66.263 182.000,66.400 181.733,66.400 180.447 C 66.400 179.230,66.573 178.848,67.200 178.684 C 67.813 178.524,68.000 178.138,68.000 177.037 C 68.000 175.867,68.148 175.600,68.800 175.600 C 69.240 175.600,69.600 175.427,69.600 175.216 C 69.600 174.693,73.465 170.800,73.984 170.800 C 74.213 170.800,74.400 170.544,74.400 170.232 C 74.400 169.919,74.952 169.542,75.627 169.394 C 76.302 169.246,76.951 168.872,77.070 168.562 C 77.188 168.253,77.626 168.000,78.043 168.000 C 78.459 168.000,79.160 167.640,79.600 167.200 C 80.040 166.760,80.933 166.400,81.586 166.400 C 82.362 166.400,82.920 166.124,83.200 165.600 C 83.542 164.962,84.038 164.800,85.652 164.800 C 87.338 164.800,87.710 164.667,87.884 164.000 C 88.201 162.787,93.200 162.787,93.200 164.000 C 93.200 164.648,93.467 164.800,94.600 164.800 C 95.733 164.800,96.000 164.952,96.000 165.600 C 96.000 166.133,96.267 166.400,96.800 166.400 C 97.387 166.400,97.600 166.667,97.600 167.400 C 97.600 167.950,97.960 168.760,98.400 169.200 C 98.840 169.640,99.200 170.448,99.200 170.997 C 99.200 171.560,99.548 172.210,100.000 172.493 C 100.647 172.897,100.800 173.426,100.800 175.264 C 100.800 177.900,101.065 178.800,101.843 178.800 C 102.303 178.800,102.400 180.432,102.400 188.200 L 102.400 197.600 105.400 197.600 C 108.133 197.600,108.400 197.529,108.400 196.800 C 108.400 196.133,108.667 196.000,110.000 196.000 C 111.333 196.000,111.600 195.867,111.600 195.200 C 111.600 194.533,111.867 194.400,113.200 194.400 C 114.533 194.400,114.800 194.267,114.800 193.600 C 114.800 192.951,115.067 192.800,116.213 192.800 C 117.099 192.800,117.711 192.577,117.855 192.200 C 117.986 191.860,118.582 191.600,119.229 191.600 C 119.962 191.600,120.525 191.314,120.800 190.800 C 121.051 190.331,121.638 190.000,122.218 190.000 C 122.762 190.000,123.516 189.640,123.893 189.200 C 124.270 188.760,124.883 188.400,125.256 188.400 C 126.365 188.400,127.200 187.952,127.200 187.357 C 127.200 186.984,127.675 186.800,128.637 186.800 C 129.738 186.800,130.124 186.613,130.284 186.000 C 130.443 185.394,130.830 185.200,131.884 185.200 C 132.938 185.200,133.325 185.006,133.484 184.400 C 133.643 183.794,134.030 183.600,135.084 183.600 C 136.138 183.600,136.525 183.406,136.684 182.800 C 136.799 182.360,137.139 182.000,137.439 182.000 C 138.663 182.000,138.594 175.003,137.365 174.531 C 136.926 174.363,136.800 173.338,136.800 169.920 C 136.800 165.862,136.739 165.509,136.000 165.316 C 135.305 165.134,135.200 164.770,135.200 162.553 C 135.200 160.533,135.033 159.833,134.400 159.200 C 133.872 158.672,133.600 157.867,133.600 156.833 C 133.600 154.878,133.277 154.000,132.557 154.000 C 131.533 154.000,131.769 144.554,132.800 144.284 C 133.510 144.098,133.600 143.738,133.600 141.084 C 133.600 138.430,133.690 138.070,134.400 137.884 C 135.066 137.710,135.200 137.338,135.200 135.664 C 135.200 134.005,135.340 133.610,136.000 133.400 C 136.668 133.188,136.800 132.795,136.800 131.020 C 136.800 129.230,136.927 128.860,137.600 128.684 C 138.213 128.524,138.400 128.138,138.400 127.037 C 138.400 126.080,138.585 125.600,138.953 125.600 C 139.578 125.600,139.986 124.403,139.995 122.547 C 139.999 121.632,140.216 121.237,140.800 121.084 C 141.414 120.923,141.600 120.538,141.600 119.425 C 141.600 118.505,141.819 117.891,142.200 117.745 C 142.628 117.580,142.800 116.911,142.800 115.404 C 142.800 113.630,142.928 113.260,143.600 113.084 C 144.306 112.899,144.400 112.538,144.400 110.000 C 144.400 107.462,144.494 107.101,145.200 106.916 C 145.964 106.716,146.000 106.370,146.000 99.316 C 146.000 92.262,145.964 91.916,145.200 91.716 C 144.514 91.537,144.400 91.170,144.400 89.153 C 144.400 87.067,144.309 86.800,143.600 86.800 C 142.933 86.800,142.800 86.533,142.800 85.200 C 142.800 84.044,142.633 83.600,142.200 83.600 C 141.867 83.600,141.600 83.244,141.600 82.800 C 141.600 82.356,141.867 82.000,142.200 82.000 C 142.573 82.000,142.800 81.622,142.800 81.000 C 142.800 80.412,143.030 80.000,143.357 80.000 C 143.969 80.000,144.400 79.159,144.400 77.967 C 144.400 77.467,144.678 77.200,145.200 77.200 C 145.697 77.200,146.000 76.933,146.000 76.496 C 146.000 76.109,146.360 75.568,146.800 75.293 C 147.240 75.018,147.600 74.366,147.600 73.843 C 147.600 73.230,147.883 72.819,148.400 72.684 C 148.840 72.569,149.200 72.200,149.200 71.864 C 149.200 71.529,149.560 71.140,150.000 71.000 C 150.440 70.860,150.800 70.532,150.800 70.269 C 150.800 70.007,151.160 69.568,151.600 69.293 C 152.040 69.018,152.400 68.525,152.400 68.197 C 152.400 67.868,152.670 67.600,153.000 67.600 C 153.330 67.600,153.600 67.365,153.600 67.077 C 153.600 66.790,154.410 65.685,155.400 64.622 C 156.390 63.559,157.200 62.444,157.200 62.144 C 157.200 61.845,157.470 61.600,157.800 61.600 C 158.130 61.600,158.760 61.240,159.200 60.800 C 159.640 60.360,160.178 60.000,160.397 60.000 C 160.615 60.000,161.018 59.640,161.293 59.200 C 161.568 58.760,162.025 58.400,162.309 58.400 C 162.593 58.400,162.926 58.137,163.050 57.815 C 163.173 57.494,163.617 57.121,164.037 56.988 C 164.457 56.855,164.800 56.509,164.800 56.220 C 164.800 55.930,165.160 55.599,165.600 55.484 C 166.040 55.369,166.400 54.988,166.400 54.637 C 166.400 54.287,166.717 54.000,167.104 54.000 C 167.491 54.000,168.032 53.640,168.307 53.200 C 168.584 52.757,169.240 52.400,169.776 52.400 C 170.395 52.400,170.838 52.110,171.000 51.600 C 171.140 51.160,171.529 50.800,171.864 50.800 C 172.200 50.800,172.569 50.440,172.684 50.000 C 172.841 49.399,173.230 49.200,174.247 49.200 C 175.333 49.200,175.600 49.042,175.600 48.400 C 175.600 47.748,175.867 47.600,177.037 47.600 C 178.138 47.600,178.524 47.413,178.684 46.800 C 178.800 46.357,179.230 46.000,179.647 46.000 C 180.061 46.000,180.760 45.640,181.200 45.200 C 181.640 44.760,182.345 44.400,182.767 44.400 C 183.959 44.400,184.800 43.969,184.800 43.357 C 184.800 42.974,185.299 42.800,186.400 42.800 C 187.556 42.800,188.000 42.633,188.000 42.200 C 188.000 41.764,188.449 41.600,189.637 41.600 C 190.938 41.600,191.318 41.436,191.484 40.800 C 191.658 40.135,192.030 40.000,193.684 40.000 C 195.300 40.000,195.712 39.858,195.872 39.244 C 196.035 38.624,196.539 38.459,198.683 38.322 C 200.537 38.204,201.441 37.959,201.792 37.478 C 202.179 36.949,202.923 36.800,205.182 36.800 C 207.738 36.800,208.099 36.707,208.284 36.000 C 208.478 35.260,208.830 35.200,213.002 35.200 C 216.899 35.200,217.640 35.093,218.456 34.413 C 219.833 33.266,239.716 33.163,240.351 34.300 M191.716 86.000 C 191.532 86.702,191.170 86.800,188.757 86.800 C 186.440 86.800,185.928 86.926,185.507 87.600 C 185.151 88.170,184.574 88.400,183.504 88.400 C 182.267 88.400,182.000 88.542,182.000 89.200 C 182.000 89.848,181.733 90.000,180.600 90.000 C 179.467 90.000,179.200 90.152,179.200 90.800 C 179.200 91.467,178.933 91.600,177.600 91.600 C 176.267 91.600,176.000 91.733,176.000 92.400 C 176.000 92.933,175.733 93.200,175.200 93.200 C 174.667 93.200,174.400 93.467,174.400 94.000 C 174.400 94.652,174.133 94.800,172.963 94.800 C 171.862 94.800,171.476 94.987,171.316 95.600 C 171.201 96.040,170.841 96.400,170.516 96.400 C 170.191 96.400,169.831 96.760,169.716 97.200 C 169.601 97.640,169.270 98.000,168.980 98.000 C 168.691 98.000,168.326 98.405,168.170 98.900 C 168.013 99.395,167.551 100.091,167.143 100.447 C 166.734 100.803,166.400 101.388,166.400 101.747 C 166.400 102.106,166.124 102.400,165.787 102.400 C 165.451 102.400,165.059 102.715,164.918 103.100 C 164.776 103.485,164.429 103.940,164.146 104.111 C 163.864 104.282,163.515 105.047,163.372 105.811 C 163.223 106.604,162.873 107.200,162.555 107.200 C 162.174 107.200,162.000 107.701,162.000 108.800 C 162.000 110.133,161.867 110.400,161.200 110.400 C 160.499 110.400,160.400 110.667,160.400 112.553 C 160.400 114.370,160.275 114.739,159.600 114.916 C 158.125 115.302,158.435 119.600,159.938 119.600 C 160.568 119.600,161.399 119.957,161.800 120.400 C 162.392 121.055,163.032 121.200,165.318 121.200 C 167.517 121.200,168.221 121.349,168.623 121.900 C 169.038 122.468,169.893 122.626,173.167 122.737 L 177.200 122.875 177.200 121.884 C 177.200 121.230,177.472 120.822,178.000 120.684 C 178.604 120.526,178.800 120.138,178.800 119.099 C 178.800 118.232,179.095 117.457,179.600 117.000 C 180.040 116.602,180.400 115.944,180.400 115.538 C 180.400 115.132,180.674 114.800,181.010 114.800 C 181.345 114.800,181.791 114.350,182.000 113.800 C 182.209 113.250,182.522 112.800,182.695 112.800 C 182.869 112.800,183.188 112.397,183.405 111.904 C 183.622 111.411,184.378 110.646,185.085 110.204 C 185.791 109.762,186.376 109.175,186.385 108.900 C 186.393 108.625,186.766 108.400,187.213 108.400 C 187.659 108.400,188.124 108.141,188.246 107.824 C 188.367 107.508,189.004 107.131,189.660 106.987 C 190.317 106.843,190.951 106.472,191.070 106.162 C 191.198 105.828,191.851 105.600,192.680 105.600 C 193.738 105.600,194.125 105.407,194.284 104.800 C 194.556 103.760,210.400 103.522,210.400 104.557 C 210.400 105.602,213.331 105.986,215.374 105.210 C 216.333 104.845,216.400 104.646,216.400 102.173 C 216.400 100.132,216.583 99.293,217.200 98.509 C 217.833 97.705,218.000 96.886,218.000 94.593 C 218.000 92.004,218.088 91.670,218.822 91.478 C 219.543 91.290,219.629 91.000,219.522 89.132 L 219.400 87.000 217.489 86.878 C 216.119 86.790,215.441 86.535,215.093 85.978 C 214.325 84.748,192.038 84.769,191.716 86.000 M227.200 116.682 C 226.870 116.811,226.456 117.161,226.280 117.459 C 226.103 117.759,225.300 118.000,224.476 118.000 C 223.426 118.000,222.847 118.234,222.493 118.800 C 222.111 119.411,221.560 119.600,220.159 119.600 C 218.679 119.600,218.286 119.750,218.122 120.378 C 217.975 120.937,217.507 121.191,216.459 121.278 C 214.568 121.436,213.940 125.600,215.808 125.600 C 216.193 125.600,216.400 126.001,216.400 126.750 C 216.400 128.737,216.879 130.400,217.450 130.400 C 217.820 130.400,218.000 130.896,218.000 131.912 C 218.000 132.965,218.243 133.598,218.800 134.000 C 219.382 134.420,219.600 135.035,219.600 136.261 C 219.600 137.595,219.767 137.999,220.400 138.200 C 221.041 138.404,221.200 138.805,221.200 140.224 C 221.200 141.560,221.396 142.116,222.000 142.493 C 222.570 142.849,222.800 143.426,222.800 144.496 C 222.800 145.733,222.942 146.000,223.600 146.000 C 224.267 146.000,224.400 146.267,224.400 147.600 C 224.400 148.933,224.533 149.200,225.200 149.200 C 225.864 149.200,226.000 149.467,226.000 150.767 C 226.000 152.722,226.323 153.600,227.043 153.600 C 227.370 153.600,227.600 154.012,227.600 154.600 C 227.600 155.957,224.466 156.137,224.116 154.800 C 223.931 154.094,223.570 154.000,221.050 154.000 C 218.626 154.000,218.117 153.879,217.693 153.200 C 217.304 152.578,216.760 152.400,215.243 152.400 C 213.630 152.400,213.257 152.262,213.084 151.600 C 212.932 151.017,212.538 150.800,211.637 150.800 C 210.667 150.800,210.400 150.972,210.400 151.600 C 210.400 152.133,210.133 152.400,209.600 152.400 C 208.937 152.400,208.800 152.667,208.800 153.953 C 208.800 155.170,208.627 155.552,208.000 155.716 C 207.417 155.868,207.200 156.262,207.200 157.163 C 207.200 157.867,206.855 158.745,206.400 159.200 C 205.875 159.725,205.600 160.533,205.600 161.553 C 205.600 162.770,205.427 163.152,204.800 163.316 C 204.089 163.502,204.000 163.862,204.000 166.563 L 204.000 169.600 205.600 169.600 C 206.696 169.600,207.200 169.774,207.200 170.153 C 207.200 170.800,208.409 171.187,210.453 171.195 C 211.568 171.199,211.955 171.387,212.116 172.000 C 212.300 172.705,212.662 172.800,215.163 172.800 C 217.321 172.800,218.000 172.933,218.000 173.357 C 218.000 174.297,218.972 174.400,227.733 174.395 C 236.646 174.389,238.000 174.251,238.000 173.353 C 238.000 172.972,238.510 172.800,239.637 172.800 C 240.938 172.800,241.318 172.636,241.484 172.000 C 241.634 171.426,242.030 171.200,242.884 171.200 C 243.738 171.200,244.134 170.974,244.284 170.400 C 244.400 169.957,244.830 169.600,245.247 169.600 C 245.718 169.600,246.000 169.318,246.000 168.847 C 246.000 168.430,246.357 168.000,246.800 167.884 C 247.406 167.725,247.600 167.338,247.600 166.284 C 247.600 165.230,247.794 164.843,248.400 164.684 C 249.149 164.488,249.200 164.138,249.200 159.237 C 249.200 154.267,249.159 154.000,248.400 154.000 C 247.742 154.000,247.600 153.733,247.600 152.496 C 247.600 151.426,247.370 150.849,246.800 150.493 C 246.315 150.190,246.000 149.560,246.000 148.893 C 246.000 148.226,245.685 147.596,245.200 147.293 C 244.612 146.926,244.400 146.360,244.400 145.159 C 244.400 143.862,244.235 143.482,243.600 143.316 C 242.973 143.152,242.800 142.770,242.800 141.553 C 242.800 140.439,242.630 140.000,242.200 140.000 C 241.778 140.000,241.600 139.574,241.600 138.563 C 241.600 137.462,241.413 137.076,240.800 136.916 C 240.153 136.747,240.000 136.370,240.000 134.949 C 240.000 133.687,239.775 132.999,239.200 132.507 C 238.751 132.123,238.400 131.327,238.400 130.694 C 238.400 130.074,238.040 129.180,237.600 128.708 C 237.083 128.153,236.800 127.296,236.800 126.287 C 236.800 125.062,236.628 124.680,236.000 124.516 C 235.339 124.343,235.200 123.970,235.200 122.376 C 235.200 120.925,235.009 120.312,234.432 119.907 C 233.990 119.598,233.607 118.781,233.532 117.985 L 233.400 116.600 230.600 116.523 C 229.060 116.481,227.530 116.553,227.200 116.682 M267.808 126.791 C 267.270 127.385,266.575 127.600,265.187 127.600 C 262.936 127.600,261.960 128.403,262.724 129.627 C 263.014 130.091,263.200 132.038,263.200 134.598 C 263.200 138.313,263.294 138.888,264.000 139.493 C 264.562 139.974,264.800 140.673,264.800 141.839 C 264.800 144.236,265.224 146.000,265.799 146.000 C 266.108 146.000,266.374 146.788,266.497 148.067 C 266.618 149.330,266.949 150.320,267.348 150.611 C 267.718 150.882,268.000 151.647,268.000 152.382 C 268.000 153.338,268.208 153.729,268.800 153.884 C 269.425 154.048,269.600 154.430,269.600 155.631 C 269.600 156.617,269.870 157.426,270.353 157.884 C 270.768 158.278,271.229 159.170,271.378 159.867 C 271.527 160.563,271.908 161.233,272.224 161.354 C 272.541 161.476,272.800 161.941,272.800 162.387 C 272.800 162.933,273.063 163.200,273.600 163.200 C 274.267 163.200,274.400 163.467,274.400 164.800 C 274.400 166.133,274.533 166.400,275.200 166.400 C 275.733 166.400,276.000 166.667,276.000 167.200 C 276.000 167.640,276.360 168.360,276.800 168.800 C 277.240 169.240,277.600 169.887,277.600 170.237 C 277.600 170.588,277.960 170.969,278.400 171.084 C 278.843 171.200,279.200 171.630,279.200 172.047 C 279.200 172.461,279.450 172.800,279.757 172.800 C 280.063 172.800,280.425 173.245,280.561 173.788 C 280.698 174.332,281.167 174.968,281.605 175.203 C 282.042 175.437,282.400 175.982,282.400 176.414 C 282.400 176.846,282.649 177.200,282.953 177.200 C 283.258 177.200,283.601 177.560,283.716 178.000 C 283.831 178.440,284.191 178.800,284.516 178.800 C 284.841 178.800,285.201 179.160,285.316 179.600 C 285.431 180.040,285.791 180.400,286.116 180.400 C 286.441 180.400,286.801 180.760,286.916 181.200 C 287.031 181.640,287.391 182.000,287.716 182.000 C 288.041 182.000,288.401 182.360,288.516 182.800 C 288.631 183.240,289.012 183.600,289.363 183.600 C 289.713 183.600,290.000 183.870,290.000 184.200 C 290.000 184.530,290.142 184.800,290.316 184.800 C 291.081 184.800,299.278 192.584,299.717 193.727 C 299.859 194.097,300.148 194.400,300.360 194.400 C 300.573 194.400,300.860 194.760,301.000 195.200 C 301.140 195.640,301.491 196.000,301.780 196.000 C 302.070 196.000,302.401 196.360,302.516 196.800 C 302.631 197.240,303.012 197.600,303.363 197.600 C 303.733 197.600,304.000 197.935,304.000 198.400 C 304.000 198.933,304.267 199.200,304.800 199.200 C 305.333 199.200,305.600 199.467,305.600 200.000 C 305.600 200.533,305.333 200.800,304.800 200.800 C 304.267 200.800,304.000 201.067,304.000 201.600 C 304.000 202.222,303.733 202.400,302.803 202.400 C 302.040 202.400,301.426 202.690,301.107 203.200 C 300.832 203.640,300.202 204.000,299.707 204.000 C 299.212 204.000,298.582 204.360,298.307 204.800 C 297.969 205.342,297.374 205.600,296.466 205.600 C 295.462 205.600,295.073 205.801,294.916 206.400 C 294.752 207.027,294.370 207.200,293.153 207.200 C 291.867 207.200,291.600 207.337,291.600 208.000 C 291.600 208.695,291.333 208.800,289.563 208.800 C 287.862 208.800,287.491 208.932,287.316 209.600 C 287.139 210.277,286.770 210.400,284.916 210.400 C 283.062 210.400,282.693 210.523,282.516 211.200 C 282.337 211.886,281.970 212.000,279.953 212.000 C 278.198 212.000,277.600 212.143,277.600 212.563 C 277.600 212.999,276.711 213.156,273.641 213.263 C 270.568 213.369,269.509 213.557,268.910 214.100 C 268.434 214.531,267.497 214.800,266.469 214.800 L 264.800 214.800 264.800 212.433 C 264.800 208.971,264.675 208.800,262.157 208.800 C 260.267 208.800,260.000 208.701,260.000 208.000 C 260.000 207.337,259.733 207.200,258.447 207.200 C 257.230 207.200,256.848 207.027,256.684 206.400 C 256.509 205.732,256.138 205.600,254.437 205.600 C 252.667 205.600,252.400 205.495,252.400 204.800 C 252.400 204.076,252.133 204.000,249.590 204.000 C 246.323 204.000,246.000 204.377,246.000 208.183 C 246.000 209.709,245.829 210.380,245.400 210.545 C 244.919 210.729,244.800 211.613,244.800 215.000 C 244.800 218.387,244.919 219.271,245.400 219.455 C 245.832 219.621,246.000 220.298,246.000 221.880 C 246.000 223.738,246.123 224.107,246.800 224.284 C 247.240 224.399,247.600 224.818,247.600 225.214 C 247.600 226.362,248.040 227.200,248.643 227.200 C 248.949 227.200,249.200 227.487,249.200 227.837 C 249.200 228.188,249.543 228.565,249.963 228.674 C 250.383 228.784,250.816 229.217,250.926 229.637 C 251.075 230.209,251.485 230.400,252.563 230.400 C 253.733 230.400,254.000 230.548,254.000 231.200 C 254.000 231.865,254.267 232.000,255.580 232.000 C 256.669 232.000,257.282 232.217,257.551 232.700 C 258.209 233.877,273.526 233.987,274.580 232.823 C 275.214 232.121,275.802 232.000,278.566 232.000 C 281.374 232.000,281.874 231.893,282.307 231.200 C 282.723 230.535,283.240 230.400,285.376 230.400 C 287.595 230.400,287.981 230.291,288.200 229.600 C 288.413 228.929,288.805 228.800,290.627 228.800 C 292.533 228.800,292.800 228.702,292.800 228.000 C 292.800 227.289,293.067 227.200,295.200 227.200 C 297.333 227.200,297.600 227.111,297.600 226.400 C 297.600 225.699,297.867 225.600,299.757 225.600 C 301.306 225.600,301.979 225.431,302.145 225.000 C 302.279 224.650,302.878 224.400,303.584 224.400 C 304.360 224.400,304.972 224.113,305.293 223.600 C 305.626 223.066,306.226 222.800,307.096 222.800 C 308.133 222.800,308.400 222.636,308.400 222.000 C 308.400 221.348,308.667 221.200,309.837 221.200 C 310.938 221.200,311.324 221.013,311.484 220.400 C 311.632 219.834,312.030 219.600,312.843 219.600 C 313.560 219.600,314.181 219.299,314.493 218.800 C 314.768 218.360,315.309 218.000,315.696 218.000 C 316.133 218.000,316.400 217.697,316.400 217.200 C 316.400 216.667,316.667 216.400,317.200 216.400 C 317.733 216.400,318.000 216.133,318.000 215.600 C 318.000 215.067,318.267 214.800,318.800 214.800 C 319.333 214.800,319.600 214.533,319.600 214.000 C 319.600 213.467,319.867 213.200,320.400 213.200 C 320.933 213.200,321.200 212.933,321.200 212.400 C 321.200 211.867,321.467 211.600,322.000 211.600 C 322.533 211.600,322.800 211.333,322.800 210.800 C 322.800 210.360,323.049 210.000,323.353 210.000 C 323.961 210.000,324.386 208.812,324.395 207.087 C 324.398 206.472,324.668 205.872,325.000 205.745 C 325.484 205.559,325.600 204.644,325.600 201.000 C 325.600 197.356,325.484 196.441,325.000 196.255 C 324.607 196.104,324.400 195.481,324.400 194.445 C 324.400 192.514,324.079 191.600,323.402 191.600 C 323.120 191.600,322.769 190.961,322.622 190.179 C 322.476 189.397,322.114 188.665,321.817 188.551 C 321.521 188.438,321.188 187.997,321.077 187.572 C 320.966 187.148,320.588 186.800,320.237 186.800 C 319.887 186.800,319.600 186.538,319.600 186.218 C 319.600 185.898,319.150 185.186,318.600 184.636 C 318.050 184.086,317.600 183.358,317.600 183.018 C 317.600 182.678,317.330 182.400,317.000 182.400 C 316.667 182.400,316.400 182.044,316.400 181.600 C 316.400 181.135,316.133 180.800,315.763 180.800 C 315.412 180.800,315.031 180.440,314.916 180.000 C 314.800 179.557,314.370 179.200,313.953 179.200 C 313.467 179.200,313.200 178.917,313.200 178.400 C 313.200 177.867,312.933 177.600,312.400 177.600 C 311.867 177.600,311.600 177.333,311.600 176.800 C 311.600 176.283,311.333 176.000,310.847 176.000 C 310.430 176.000,310.000 175.643,309.884 175.200 C 309.769 174.760,309.388 174.400,309.037 174.400 C 308.687 174.400,308.400 174.124,308.400 173.787 C 308.400 173.451,308.099 173.059,307.731 172.918 C 307.071 172.665,306.568 172.280,304.573 170.500 C 304.018 170.005,303.302 169.600,302.982 169.600 C 302.662 169.600,302.400 169.240,302.400 168.800 C 302.400 168.267,302.133 168.000,301.600 168.000 C 301.135 168.000,300.800 167.733,300.800 167.363 C 300.800 167.012,300.440 166.631,300.000 166.516 C 299.557 166.400,299.200 165.970,299.200 165.553 C 299.200 165.067,298.917 164.800,298.400 164.800 C 297.868 164.800,297.600 164.533,297.600 164.003 C 297.600 163.565,297.240 162.982,296.800 162.707 C 296.360 162.432,296.000 161.874,296.000 161.466 C 296.000 161.059,295.640 160.631,295.200 160.516 C 294.757 160.400,294.400 159.970,294.400 159.553 C 294.400 159.067,294.117 158.800,293.600 158.800 C 293.139 158.800,292.800 158.533,292.800 158.171 C 292.800 157.826,292.530 157.273,292.200 156.943 C 291.870 156.613,291.600 155.889,291.600 155.334 C 291.600 154.678,291.333 154.255,290.838 154.126 C 290.349 153.998,289.982 153.429,289.816 152.542 C 289.673 151.781,289.313 151.065,289.017 150.951 C 288.721 150.838,288.363 150.127,288.221 149.372 C 288.068 148.556,287.728 148.000,287.382 148.000 C 286.981 148.000,286.800 147.554,286.800 146.563 C 286.800 145.462,286.613 145.076,286.000 144.916 C 285.353 144.747,285.200 144.370,285.200 142.953 C 285.200 141.733,284.957 140.957,284.400 140.400 C 283.809 139.809,283.600 139.067,283.600 137.563 C 283.600 135.872,283.466 135.490,282.813 135.319 C 282.098 135.132,282.015 134.702,281.913 130.657 L 281.800 126.200 275.170 126.091 C 268.948 125.988,268.496 126.031,267.808 126.791 M80.769 177.682 C 79.906 178.608,79.200 179.598,79.200 179.882 C 79.200 180.167,78.840 180.400,78.400 180.400 C 77.883 180.400,77.600 180.667,77.600 181.153 C 77.600 181.570,77.243 182.000,76.800 182.116 C 76.260 182.257,76.000 182.662,76.000 183.359 C 76.000 183.960,75.665 184.603,75.200 184.893 C 74.760 185.168,74.400 185.756,74.400 186.200 C 74.400 186.644,74.040 187.232,73.600 187.507 C 72.993 187.886,72.800 188.440,72.800 189.803 C 72.800 191.333,72.681 191.600,72.000 191.600 C 71.267 191.600,71.200 191.867,71.200 194.800 C 71.200 197.269,71.073 198.000,70.643 198.000 C 69.250 198.000,69.016 207.922,70.400 208.284 C 70.840 208.399,71.200 208.755,71.200 209.075 C 71.200 210.176,72.396 210.995,73.236 210.470 C 73.677 210.195,75.581 210.000,77.832 210.000 C 81.338 210.000,81.693 209.930,81.884 209.200 C 82.074 208.472,82.430 208.400,85.811 208.400 L 89.530 208.400 89.794 206.837 C 89.939 205.977,89.875 204.612,89.652 203.803 C 89.392 202.862,89.382 201.974,89.623 201.340 C 89.830 200.794,90.000 199.391,90.000 198.221 C 90.000 196.430,90.127 196.060,90.800 195.884 C 91.240 195.769,91.600 195.407,91.600 195.080 C 91.600 194.753,91.870 194.382,92.200 194.255 C 92.530 194.129,92.800 193.793,92.800 193.509 C 92.800 193.225,93.160 192.768,93.600 192.493 C 94.207 192.114,94.400 191.560,94.400 190.197 C 94.400 188.667,94.281 188.400,93.600 188.400 C 93.067 188.400,92.800 188.133,92.800 187.600 C 92.800 187.160,92.553 186.800,92.250 186.800 C 91.948 186.800,91.584 186.222,91.443 185.515 C 91.302 184.808,90.589 183.667,89.861 182.979 C 89.132 182.292,88.420 181.430,88.280 181.065 C 88.140 180.699,87.749 180.400,87.413 180.400 C 87.076 180.400,86.800 180.158,86.800 179.862 C 86.800 179.566,86.456 179.013,86.036 178.633 C 85.616 178.252,85.162 177.504,85.028 176.971 C 84.615 175.322,82.666 175.647,80.769 177.682 M227.600 225.200 C 227.600 225.733,227.333 226.000,226.800 226.000 C 226.267 226.000,226.000 226.267,226.000 226.800 C 226.000 227.333,225.733 227.600,225.200 227.600 C 224.683 227.600,224.400 227.867,224.400 228.353 C 224.400 228.770,224.043 229.200,223.600 229.316 C 223.017 229.468,222.800 229.862,222.800 230.763 C 222.800 231.733,222.628 232.000,222.000 232.000 C 221.467 232.000,221.200 232.267,221.200 232.800 C 221.200 233.333,220.933 233.600,220.400 233.600 C 219.883 233.600,219.600 233.867,219.600 234.353 C 219.600 234.770,219.243 235.200,218.800 235.316 C 218.122 235.493,218.000 235.862,218.000 237.736 C 218.000 239.595,218.127 239.986,218.800 240.200 C 219.240 240.340,219.600 240.712,219.600 241.027 C 219.600 241.342,219.960 241.600,220.400 241.600 C 220.844 241.600,221.200 241.867,221.200 242.200 C 221.200 242.530,221.539 242.800,221.953 242.800 C 222.370 242.800,222.800 243.157,222.916 243.600 C 223.076 244.213,223.462 244.400,224.563 244.400 C 225.733 244.400,226.000 244.548,226.000 245.200 C 226.000 245.733,226.267 246.000,226.800 246.000 C 227.240 246.000,227.960 246.360,228.400 246.800 C 228.840 247.240,229.539 247.600,229.953 247.600 C 230.370 247.600,230.800 247.957,230.916 248.400 C 231.076 249.013,231.462 249.200,232.563 249.200 C 233.520 249.200,234.000 249.385,234.000 249.753 C 234.000 250.384,235.200 250.787,237.100 250.795 C 238.132 250.799,238.400 250.965,238.400 251.600 C 238.400 252.248,238.667 252.400,239.800 252.400 C 240.667 252.400,241.505 252.705,242.000 253.200 C 242.605 253.805,243.333 254.000,244.986 254.000 C 246.762 254.000,247.252 254.150,247.600 254.800 C 247.969 255.490,248.438 255.600,251.014 255.600 C 253.300 255.600,254.000 255.731,254.000 256.157 C 254.000 257.059,254.952 257.200,261.033 257.200 C 265.893 257.200,266.800 257.294,266.800 257.800 C 266.800 258.670,276.675 258.681,277.824 257.813 C 278.251 257.490,279.365 257.220,280.300 257.213 L 282.000 257.200 282.000 251.600 C 282.000 246.533,281.924 245.924,281.200 245.200 C 280.542 244.542,280.400 243.867,280.400 241.400 L 280.400 238.400 269.400 238.400 C 258.667 238.400,258.400 238.381,258.400 237.600 C 258.400 236.872,258.133 236.800,255.447 236.800 C 252.830 236.800,252.469 236.709,252.284 236.000 C 252.106 235.320,251.738 235.200,249.837 235.200 C 247.867 235.200,247.600 235.105,247.600 234.400 C 247.600 233.733,247.333 233.600,246.000 233.600 C 244.850 233.600,244.400 233.433,244.400 233.005 C 244.400 232.620,243.835 232.319,242.800 232.154 C 241.866 232.004,241.200 231.677,241.200 231.367 C 241.200 231.075,240.582 230.720,239.828 230.579 C 239.073 230.437,238.359 230.069,238.240 229.761 C 238.112 229.426,237.455 229.200,236.613 229.200 C 235.467 229.200,235.200 229.049,235.200 228.400 C 235.200 227.883,234.933 227.600,234.447 227.600 C 234.030 227.600,233.600 227.243,233.484 226.800 C 233.359 226.321,232.938 226.000,232.437 226.000 C 231.977 226.000,231.600 225.751,231.600 225.447 C 231.600 224.840,230.413 224.414,228.700 224.405 C 227.865 224.401,227.600 224.593,227.600 225.200 M219.716 253.200 C 219.537 253.883,219.170 254.000,217.215 254.000 C 215.432 254.000,214.763 254.177,214.200 254.800 C 213.633 255.426,212.968 255.600,211.138 255.600 C 209.067 255.600,208.800 255.691,208.800 256.400 C 208.800 256.933,208.533 257.200,208.000 257.200 C 207.300 257.200,207.200 257.467,207.200 259.338 C 207.200 260.968,207.390 261.648,208.000 262.200 C 208.493 262.646,208.800 263.432,208.800 264.248 C 208.800 265.162,209.047 265.704,209.600 266.000 C 210.040 266.235,210.400 266.782,210.400 267.214 C 210.400 267.733,210.671 268.000,211.200 268.000 C 211.787 268.000,212.000 268.267,212.000 269.004 C 212.000 269.556,212.360 270.316,212.800 270.693 C 213.240 271.070,213.600 271.587,213.600 271.842 C 213.600 272.098,213.960 272.401,214.400 272.516 C 214.840 272.631,215.200 273.012,215.200 273.363 C 215.200 273.713,215.397 274.000,215.637 274.000 C 215.877 274.000,216.531 274.360,217.091 274.800 C 217.650 275.240,218.444 275.600,218.854 275.600 C 219.333 275.600,219.600 275.886,219.600 276.400 C 219.600 276.897,219.867 277.200,220.304 277.200 C 220.691 277.200,221.232 277.560,221.507 278.000 C 221.810 278.485,222.440 278.800,223.107 278.800 C 223.774 278.800,224.404 279.115,224.707 279.600 C 225.098 280.226,225.640 280.400,227.203 280.400 C 228.933 280.400,229.200 280.507,229.200 281.200 C 229.200 281.903,229.467 282.000,231.400 282.000 C 233.067 282.000,233.794 282.194,234.400 282.800 C 235.111 283.511,235.733 283.600,239.980 283.600 C 244.117 283.600,244.813 283.694,245.151 284.300 C 245.809 285.476,260.013 285.587,261.176 284.424 C 261.937 283.663,262.472 283.600,268.200 283.600 C 273.867 283.600,274.469 283.531,275.200 282.800 C 275.874 282.126,276.533 282.000,279.386 282.000 C 283.231 282.000,283.600 281.725,283.600 278.859 C 283.600 276.879,283.279 276.000,282.557 276.000 C 282.131 276.000,282.000 275.302,282.000 273.027 C 282.000 270.405,281.905 270.024,281.200 269.800 C 280.495 269.576,280.400 269.195,280.400 266.581 C 280.400 263.014,280.474 263.054,274.388 263.262 C 271.094 263.374,270.239 263.531,269.823 264.100 C 268.976 265.259,240.491 265.166,239.493 264.000 C 239.000 263.425,238.313 263.200,237.047 263.200 C 235.850 263.200,235.212 263.008,235.055 262.600 C 234.911 262.223,234.299 262.000,233.413 262.000 C 232.267 262.000,232.000 261.849,232.000 261.200 C 232.000 260.533,231.733 260.400,230.400 260.400 C 229.067 260.400,228.800 260.267,228.800 259.600 C 228.800 259.067,228.533 258.800,228.000 258.800 C 227.348 258.800,227.200 258.533,227.200 257.363 C 227.200 256.262,227.013 255.876,226.400 255.716 C 225.773 255.552,225.600 255.170,225.600 253.953 L 225.600 252.400 222.763 252.400 C 220.262 252.400,219.900 252.495,219.716 253.200 M302.516 314.000 C 302.680 314.629,303.062 314.800,304.301 314.800 C 305.368 314.800,306.109 315.058,306.600 315.600 C 306.998 316.040,307.656 316.400,308.062 316.400 C 308.533 316.400,308.800 316.689,308.800 317.200 C 308.800 317.733,309.067 318.000,309.600 318.000 C 310.344 318.000,310.400 318.267,310.400 321.800 C 310.400 325.067,310.512 325.712,311.200 326.400 C 311.925 327.125,312.000 327.733,312.000 332.911 C 312.000 338.127,311.931 338.682,311.200 339.307 C 310.505 339.902,310.400 340.487,310.400 343.749 C 310.400 347.170,310.328 347.525,309.600 347.716 C 308.987 347.876,308.800 348.262,308.800 349.363 C 308.800 350.533,308.652 350.800,308.000 350.800 C 307.467 350.800,307.200 351.067,307.200 351.600 C 307.200 352.300,306.933 352.400,305.062 352.400 C 303.432 352.400,302.752 352.590,302.200 353.200 C 301.521 353.950,300.968 354.000,293.385 354.000 C 285.630 354.000,285.285 353.967,285.084 353.200 C 284.898 352.489,284.538 352.400,281.837 352.400 C 279.333 352.400,278.660 352.260,278.000 351.600 C 277.225 350.825,276.667 350.800,260.200 350.800 C 243.467 350.800,243.200 350.813,243.200 351.600 C 243.200 352.258,242.933 352.400,241.696 352.400 C 240.626 352.400,240.049 352.630,239.693 353.200 C 239.316 353.804,238.760 354.000,237.424 354.000 C 236.005 354.000,235.604 354.159,235.400 354.800 C 235.209 355.401,234.795 355.600,233.736 355.600 C 232.662 355.600,232.275 355.791,232.116 356.400 C 231.942 357.065,231.570 357.200,229.916 357.200 C 228.262 357.200,227.890 357.335,227.716 358.000 C 227.553 358.623,227.170 358.800,225.986 358.800 C 224.077 358.800,223.200 359.128,223.200 359.843 C 223.200 360.245,222.643 360.400,221.203 360.400 C 219.640 360.400,219.098 360.574,218.707 361.200 C 218.302 361.850,217.774 362.000,215.904 362.000 C 214.123 362.000,213.600 362.136,213.600 362.600 C 213.600 363.065,213.073 363.200,211.254 363.200 C 209.514 363.200,208.645 363.407,207.891 364.000 C 207.095 364.626,206.268 364.800,204.091 364.800 C 201.914 364.800,201.087 364.974,200.291 365.600 C 197.288 367.962,188.400 366.276,188.400 363.344 C 188.400 362.674,188.136 362.256,187.628 362.123 C 186.901 361.933,186.849 361.425,186.728 353.442 C 186.618 346.181,186.499 344.809,185.900 343.895 C 185.016 342.548,184.951 338.938,185.794 338.007 C 186.910 336.774,187.139 328.014,186.062 327.732 C 184.883 327.424,184.843 324.757,186.000 323.600 C 186.533 323.067,186.800 322.267,186.800 321.200 C 186.800 319.889,186.939 319.600,187.567 319.600 C 188.759 319.600,189.600 319.169,189.600 318.557 C 189.600 317.529,200.646 317.766,200.916 318.800 C 201.094 319.480,201.462 319.600,203.363 319.600 C 205.067 319.600,205.791 319.791,206.400 320.400 C 206.933 320.933,207.733 321.200,208.800 321.200 C 209.933 321.200,210.400 321.370,210.400 321.782 C 210.400 322.139,210.981 322.471,211.900 322.640 C 212.725 322.792,213.829 323.250,214.354 323.658 C 214.879 324.066,215.914 324.400,216.654 324.400 C 217.584 324.400,218.000 324.586,218.000 325.000 C 218.000 325.433,218.444 325.600,219.600 325.600 C 220.933 325.600,221.200 325.733,221.200 326.400 C 221.200 327.067,221.467 327.200,222.800 327.200 C 224.133 327.200,224.400 327.333,224.400 328.000 C 224.400 328.663,224.667 328.800,225.953 328.800 C 227.170 328.800,227.552 328.973,227.716 329.600 C 227.868 330.183,228.262 330.400,229.163 330.400 C 229.867 330.400,230.745 330.745,231.200 331.200 C 231.733 331.733,232.533 332.000,233.600 332.000 C 234.933 332.000,235.200 332.133,235.200 332.800 C 235.200 333.467,235.467 333.600,236.800 333.600 C 238.133 333.600,238.400 333.733,238.400 334.400 C 238.400 335.063,238.667 335.200,239.953 335.200 C 241.170 335.200,241.552 335.373,241.716 336.000 C 241.877 336.616,242.262 336.800,243.391 336.800 C 244.197 336.800,245.127 337.070,245.457 337.400 C 245.941 337.884,247.315 338.000,252.580 338.000 C 257.889 338.000,259.195 337.888,259.600 337.400 C 259.874 337.070,260.436 336.800,260.849 336.800 C 261.333 336.800,261.600 336.516,261.600 336.000 C 261.600 335.467,261.867 335.200,262.400 335.200 C 262.840 335.200,263.560 334.840,264.000 334.400 C 264.440 333.960,265.087 333.600,265.437 333.600 C 265.788 333.600,266.169 333.240,266.284 332.800 C 266.400 332.357,266.830 332.000,267.247 332.000 C 267.733 332.000,268.000 331.717,268.000 331.200 C 268.000 330.552,268.267 330.400,269.400 330.400 C 270.533 330.400,270.800 330.248,270.800 329.600 C 270.800 329.013,271.067 328.800,271.800 328.800 C 272.533 328.800,272.800 328.587,272.800 328.000 C 272.800 327.372,273.067 327.200,274.037 327.200 C 274.938 327.200,275.332 326.983,275.484 326.400 C 275.600 325.957,276.030 325.600,276.447 325.600 C 276.861 325.600,277.200 325.330,277.200 325.000 C 277.200 324.632,277.574 324.400,278.167 324.400 C 279.548 324.400,280.400 324.002,280.400 323.357 C 280.400 323.051,280.678 322.800,281.017 322.800 C 281.356 322.800,282.020 322.440,282.492 322.000 C 282.964 321.560,283.694 321.200,284.113 321.200 C 284.538 321.200,284.967 320.847,285.084 320.400 C 285.240 319.803,285.630 319.600,286.620 319.600 C 287.595 319.600,288.013 319.388,288.200 318.800 C 288.380 318.232,288.805 318.000,289.664 318.000 C 290.538 318.000,290.933 317.778,291.084 317.200 C 291.243 316.594,291.630 316.400,292.684 316.400 C 293.738 316.400,294.125 316.206,294.284 315.600 C 294.448 314.973,294.830 314.800,296.047 314.800 C 297.333 314.800,297.600 314.663,297.600 314.000 C 297.600 313.291,297.867 313.200,299.953 313.200 C 301.970 313.200,302.337 313.314,302.516 314.000 M161.884 328.000 C 162.061 328.675,162.430 328.800,164.247 328.800 L 166.400 328.800 166.400 331.200 C 166.400 333.688,165.207 334.800,164.684 332.800 C 164.569 332.360,164.188 332.000,163.837 332.000 C 163.487 332.000,163.200 331.742,163.200 331.427 C 163.200 331.112,162.803 330.728,162.319 330.574 C 161.834 330.420,161.191 330.048,160.890 329.747 C 160.589 329.446,159.906 329.200,159.371 329.200 C 158.679 329.200,158.400 328.979,158.400 328.429 C 158.400 328.005,158.085 327.576,157.700 327.476 C 157.315 327.375,158.052 327.272,159.337 327.246 C 161.360 327.206,161.703 327.308,161.884 328.000 " stroke="none" fill="#040404" fill-rule="evenodd"></path><path id="path1" d="" stroke="none" fill="#080404" fill-rule="evenodd"></path><path id="path2" d="" stroke="none" fill="#080404" fill-rule="evenodd"></path><path id="path3" d="" stroke="none" fill="#080404" fill-rule="evenodd"></path><path id="path4" d="" stroke="none" fill="#080404" fill-rule="evenodd"></path></g></svg>